<?xml version="1.0" standalone="no"?>
<!DOCTYPE svg PUBLIC "-//W3C//DTD SVG 20010904//EN"
 "http://www.w3.org/TR/2001/REC-SVG-20010904/DTD/svg10.dtd">
<svg version="1.0" xmlns="http://www.w3.org/2000/svg"
 width="900.000000pt" height="900.000000pt" viewBox="0 0 900.000000 900.000000"
 preserveAspectRatio="xMidYMid meet">
<metadata>
Created by potrace 1.10, written by Peter Selinger 2001-2011
</metadata>
<g transform="translate(0.000000,900.000000) scale(0.100000,-0.100000)"
fill="#000000" stroke="none">
<path d="M1 8930 l-2 -70 33 7 c18 3 40 12 49 19 8 8 29 14 46 14 17 0 36 7
43 15 7 8 18 15 26 15 15 0 34 30 34 54 0 14 -17 16 -113 16 l-114 0 -2 -70z
m107 18 c-3 -7 -13 -13 -23 -13 -10 0 -20 6 -22 13 -3 7 5 12 22 12 17 0 25
-5 23 -12z"/>
<path d="M340 8986 c0 -9 19 -16 61 -20 71 -8 113 -22 104 -35 -15 -25 44 -15
82 13 1 0 4 13 8 29 l7 27 -131 0 c-104 0 -131 -3 -131 -14z"/>
<path d="M730 8981 c0 -11 -5 -23 -12 -27 -8 -5 -7 -10 4 -18 27 -20 37 -48
25 -73 -8 -19 -7 -27 5 -40 13 -13 22 -14 49 -4 53 18 59 15 59 -33 0 -40 3
-46 30 -58 35 -15 37 -22 12 -45 -45 -43 -60 -52 -105 -58 -44 -7 -49 -6 -45
11 2 12 14 21 33 24 23 4 30 11 30 28 0 13 7 27 14 31 23 15 2 31 -41 31 -35
0 -62 -10 -118 -41 -8 -5 -25 -13 -37 -19 -28 -12 -30 -36 -3 -43 35 -9 22
-35 -32 -60 -71 -33 -95 -40 -102 -28 -12 19 6 41 35 41 19 0 29 5 29 15 0 8
-9 15 -19 15 -26 0 -34 15 -16 30 34 28 -19 41 -65 17 -15 -8 -64 -14 -119
-15 -102 -2 -111 -4 -111 -33 0 -20 20 -24 55 -9 13 5 26 3 38 -8 15 -14 19
-13 35 1 23 21 112 24 112 5 -1 -23 -50 -50 -82 -46 -22 4 -36 -2 -56 -21 -52
-50 -120 -67 -129 -31 -6 24 -35 26 -54 4 -9 -11 -27 -15 -63 -12 -65 4 -84
-7 -60 -33 17 -19 17 -20 -4 -26 -12 -3 -22 -12 -22 -19 0 -19 46 -18 54 1 3
8 10 15 15 15 6 0 27 11 47 25 50 34 73 33 71 -2 -2 -33 21 -41 62 -20 27 14
30 13 40 -10 10 -21 15 -23 48 -17 21 4 46 11 55 15 25 13 76 11 81 -3 2 -7 8
-9 13 -5 5 4 2 12 -6 17 -18 11 -18 11 52 43 31 15 65 38 76 52 13 17 30 25
50 25 39 0 51 -17 20 -29 -33 -12 -62 -47 -48 -56 6 -4 19 0 29 9 10 9 20 16
24 16 3 0 23 11 43 25 20 14 54 30 75 35 21 6 51 22 67 35 17 14 39 25 50 25
11 0 25 7 32 15 7 8 23 15 35 15 12 0 35 10 50 22 16 12 54 27 84 33 37 8 56
17 56 26 0 23 -52 22 -101 -1 -49 -24 -74 -21 -74 9 0 13 12 26 35 36 45 22
63 43 41 50 -9 3 -23 7 -32 10 -24 8 1 35 31 35 13 0 32 10 42 23 10 13 25 26
33 30 8 4 22 11 30 16 8 5 23 12 33 15 32 10 20 36 -18 36 -24 0 -35 -5 -35
-14 0 -8 -9 -17 -19 -21 -11 -3 -22 -12 -25 -20 -3 -8 -15 -15 -26 -15 -11 0
-23 -7 -26 -15 -7 -17 -40 -20 -49 -5 -3 6 2 13 12 17 10 4 23 12 28 19 6 7
19 14 30 16 11 2 21 11 23 21 3 14 -4 17 -32 17 -22 0 -36 -5 -36 -13 0 -11
-75 -57 -94 -57 -5 0 -17 -6 -25 -14 -9 -7 -38 -16 -65 -19 -39 -4 -52 -1 -67
14 -10 10 -26 19 -34 19 -17 0 -20 16 -4 25 5 4 19 -1 30 -11 16 -15 23 -16
37 -6 9 7 27 16 40 22 33 14 28 40 -8 40 -20 0 -30 -5 -30 -15 0 -8 -5 -15
-10 -15 -6 0 -13 7 -16 15 -4 9 -19 15 -35 15 -22 0 -29 -5 -29 -19z m243 -88
c6 -11 -39 -74 -47 -66 -10 11 -7 48 6 61 13 13 35 16 41 5z m-33 -128 c0 -8
-6 -15 -14 -15 -17 0 -28 14 -19 24 12 12 33 6 33 -9z"/>
<path d="M922 8983 c2 -10 10 -18 18 -18 8 0 16 8 18 18 2 12 -3 17 -18 17
-15 0 -20 -5 -18 -17z"/>
<path d="M1280 8988 c0 -20 -51 -79 -78 -89 -19 -7 -22 -13 -14 -21 9 -9 16
-7 30 5 10 9 26 17 34 17 9 0 21 7 28 15 7 8 18 15 25 15 7 0 18 6 24 14 7 8
26 18 42 21 16 4 29 13 29 21 0 10 -15 14 -60 14 -39 0 -60 -4 -60 -12z"/>
<path d="M1450 8975 c0 -18 -7 -28 -26 -36 -15 -5 -41 -21 -57 -35 -17 -14
-42 -30 -56 -36 l-26 -9 23 -17 c17 -13 20 -20 11 -29 -6 -6 -9 -18 -6 -27 12
-31 92 13 113 63 10 25 18 29 70 34 32 3 66 1 77 -4 13 -8 23 -7 35 3 38 30
81 48 87 37 5 -7 23 -9 51 -4 35 5 44 3 44 -8 0 -11 10 -13 45 -9 27 3 45 1
45 -6 0 -11 -73 -52 -95 -52 -15 0 -31 -37 -20 -48 3 -4 31 6 60 22 61 32 101
30 71 -2 -22 -25 -20 -32 8 -32 33 0 42 -16 16 -30 -29 -16 -25 -30 10 -30 36
0 41 -25 8 -34 -21 -6 -22 -7 -5 -17 10 -6 25 -8 33 -5 8 3 14 2 14 -2 0 -15
-16 -30 -39 -37 -18 -5 -20 -9 -10 -16 8 -5 24 -9 36 -9 14 0 27 -11 37 -32
20 -40 20 -57 0 -65 -11 -4 -30 10 -61 43 l-44 49 -18 -23 -17 -24 -17 26
c-14 21 -25 26 -60 26 -24 0 -48 5 -54 11 -6 6 -16 8 -22 5 -16 -10 -14 -42 4
-60 8 -8 15 -19 15 -24 0 -5 11 -29 25 -53 13 -24 29 -53 35 -64 6 -11 19 -33
30 -50 11 -16 23 -37 26 -45 4 -8 13 -22 21 -32 8 -9 13 -29 11 -44 -3 -25 -9
-30 -46 -37 -51 -10 -48 -16 16 -35 92 -26 92 -26 92 -5 0 11 -7 28 -15 39 -8
10 -15 29 -15 40 0 12 -7 27 -15 34 -8 7 -15 20 -15 30 0 10 -7 23 -15 30 -8
7 -15 20 -15 30 0 10 -7 20 -15 24 -8 3 -15 14 -15 24 0 11 -7 25 -15 32 -8 7
-15 18 -15 25 0 7 -6 18 -14 24 -17 14 -27 59 -15 67 8 4 39 -8 89 -37 8 -5
20 -11 25 -13 38 -15 47 -20 110 -60 111 -72 160 -167 120 -236 -11 -19 -14
-68 -15 -208 0 -170 -2 -186 -21 -213 -24 -34 -74 -63 -95 -55 -8 3 -20 18
-26 33 -7 15 -23 43 -36 60 -22 30 -26 32 -45 18 -11 -8 -31 -12 -43 -9 -29 7
-40 -13 -12 -21 33 -10 87 -64 104 -104 16 -38 11 -51 -17 -51 -19 0 -108 58
-109 72 0 3 -18 25 -40 48 -22 23 -40 46 -40 51 0 5 14 9 30 9 17 0 30 4 30 9
0 12 -76 51 -100 51 -30 0 -30 -12 1 -58 16 -23 29 -45 29 -48 0 -2 20 -24 45
-47 46 -45 48 -57 9 -57 -34 0 -39 -19 -7 -25 15 -4 37 -11 48 -18 11 -6 43
-14 70 -17 48 -5 50 -6 47 -32 -4 -36 6 -35 76 4 31 17 115 61 186 97 70 36
131 71 134 79 7 21 -13 127 -39 202 l-22 64 44 85 c24 47 56 104 70 126 97
151 101 156 115 144 8 -6 14 -18 14 -27 0 -13 3 -12 20 3 13 11 18 25 14 37
-6 20 12 25 19 6 4 -10 7 -10 18 0 11 10 10 12 -4 12 -10 0 -17 8 -17 20 0 24
28 27 37 4 5 -13 9 -12 30 8 41 37 183 230 206 278 4 8 16 29 27 45 11 17 24
39 30 50 6 11 23 43 39 70 40 68 40 85 -1 85 -32 0 -34 -3 -52 -63 -37 -120
-106 -232 -185 -302 -47 -41 -90 -67 -102 -60 -14 9 -11 25 6 25 9 0 15 9 15
23 0 37 12 67 25 67 23 0 53 47 48 75 -8 38 -19 31 -47 -28 -14 -30 -56 -87
-93 -127 -89 -95 -116 -133 -143 -200 -48 -119 -93 -179 -124 -167 -14 5 -14
9 -1 34 29 58 75 163 75 176 0 6 7 21 15 31 8 11 15 27 15 37 0 9 7 22 15 29
8 7 15 23 15 35 0 12 7 28 15 35 8 7 15 23 15 35 0 12 7 28 15 35 8 7 15 20
15 30 0 10 7 23 15 30 8 7 15 23 15 35 0 12 7 28 15 35 8 7 15 18 15 24 0 7
13 39 30 71 33 64 37 85 18 85 -14 0 -78 -126 -78 -152 0 -9 -7 -21 -15 -28
-8 -7 -15 -23 -15 -35 0 -12 -7 -28 -15 -35 -8 -7 -15 -21 -15 -32 0 -11 -7
-26 -15 -34 -8 -9 -15 -24 -15 -33 0 -10 -7 -24 -15 -31 -8 -7 -15 -23 -15
-35 0 -12 -7 -28 -15 -35 -8 -7 -15 -21 -15 -31 0 -10 -4 -20 -9 -24 -6 -3
-21 -29 -36 -58 -41 -82 -82 -151 -93 -155 -18 -6 -42 30 -42 63 0 19 6 49 14
67 23 54 42 109 60 171 53 188 72 252 91 312 8 22 16 55 20 73 6 28 4 32 -14
32 -17 0 -21 -6 -21 -30 0 -31 -18 -67 -54 -107 -34 -39 -46 -30 -39 30 3 28
9 56 14 62 19 20 10 45 -16 45 -24 0 -25 -2 -25 -69 0 -39 -6 -82 -14 -98 -8
-15 -31 -63 -51 -106 -27 -57 -41 -77 -52 -73 -8 3 -17 6 -19 6 -3 0 -9 10
-15 23 -14 30 -18 37 -126 204 -29 45 -53 89 -53 97 0 9 -7 16 -15 16 -8 0
-15 -9 -15 -20 0 -17 -7 -20 -42 -20 -57 0 -88 9 -88 26 0 11 -24 14 -120 14
l-120 0 0 -25z m155 -55 c7 -11 -35 -31 -48 -23 -11 6 12 33 29 33 7 0 16 -5
19 -10z m605 -187 c0 -42 -42 -175 -78 -250 -19 -38 -57 -60 -66 -37 -12 30
-6 120 9 140 8 10 15 26 15 34 1 18 97 140 110 140 6 0 10 -12 10 -27z m-16
-549 c25 -10 19 -30 -14 -44 -24 -10 -33 -10 -45 0 -37 31 7 64 59 44z m6
-288 c28 -34 -11 -93 -47 -70 -32 20 -39 41 -19 63 22 24 49 27 66 7z"/>
<path d="M2720 8977 c0 -13 -7 -32 -15 -43 -13 -17 -21 -64 -11 -64 10 0 123
120 118 125 -3 3 -25 5 -49 5 -38 0 -43 -3 -43 -23z"/>
<path d="M3470 8969 c0 -38 24 -35 28 4 2 19 -1 27 -12 27 -11 0 -16 -10 -16
-31z"/>
<path d="M3722 8983 c6 -34 98 -25 98 8 0 5 -23 9 -51 9 -43 0 -50 -3 -47 -17z"/>
<path d="M3877 8964 c5 -29 3 -36 -8 -32 -21 8 -62 -17 -84 -51 -18 -27 -24
-30 -54 -25 -33 7 -34 6 -27 -21 5 -19 2 -33 -9 -46 -18 -19 -13 -39 10 -39 7
0 21 -7 29 -16 24 -23 41 -6 19 18 -18 21 -18 21 20 14 52 -10 93 15 77 45
-10 17 -7 21 19 30 29 10 31 13 25 50 -5 27 -3 39 5 39 19 0 81 51 75 61 -3 5
-27 9 -54 9 l-49 0 6 -36z"/>
<path d="M4150 8987 c0 -8 -12 -19 -26 -25 -30 -14 -23 -32 12 -32 15 0 24 -6
24 -15 0 -9 -9 -15 -23 -15 -13 0 -33 -10 -45 -23 l-22 -23 24 -23 c20 -19 26
-20 33 -8 15 25 45 36 70 24 18 -8 23 -18 23 -48 0 -35 -4 -40 -36 -54 -43
-18 -65 -19 -43 -2 8 7 18 22 21 35 7 27 -11 29 -47 6 -17 -11 -36 -14 -59
-10 -38 7 -55 -6 -36 -29 10 -12 9 -15 -4 -15 -10 0 -26 4 -36 10 -13 7 -21 6
-30 -5 -7 -8 -19 -15 -26 -15 -8 0 -14 -7 -14 -15 0 -9 -9 -15 -25 -15 -16 0
-25 -6 -25 -15 0 -8 -6 -15 -14 -15 -23 0 -28 18 -9 29 15 9 16 12 4 20 -16
10 -41 4 -41 -10 0 -5 -7 -9 -15 -9 -7 0 -18 -6 -22 -14 -4 -8 -16 -15 -26
-17 -83 -17 155 -29 318 -17 33 2 41 7 43 26 4 24 12 28 29 11 12 -12 74 4
103 27 8 6 22 14 30 18 8 3 29 15 45 26 17 11 40 24 53 30 23 10 30 52 13 79
-8 12 -15 10 -39 -10 -17 -13 -31 -30 -31 -38 -1 -8 -7 -11 -17 -7 -9 3 -20 6
-25 6 -18 0 -9 29 11 35 11 3 20 15 20 25 0 26 35 43 75 36 33 -6 57 -27 68
-58 5 -13 14 -16 40 -11 35 5 62 -13 33 -22 -29 -9 -41 -15 -101 -50 -33 -19
-82 -46 -110 -60 -27 -14 -83 -44 -122 -65 -147 -80 -220 -120 -298 -160 -44
-23 -88 -45 -97 -51 -43 -22 -59 -30 -158 -79 -58 -28 -112 -56 -120 -61 -8
-5 -22 -12 -30 -15 -8 -3 -27 -12 -42 -20 -14 -8 -33 -14 -41 -14 -8 0 -20 -7
-27 -15 -7 -8 -20 -15 -30 -15 -10 0 -23 -7 -30 -15 -7 -8 -23 -15 -35 -15
-12 0 -28 -7 -35 -15 -7 -8 -22 -15 -33 -15 -11 0 -28 -7 -38 -16 -10 -9 -25
-14 -34 -10 -22 8 -9 26 20 26 12 0 25 7 29 15 3 8 17 15 31 15 17 0 25 5 25
18 0 24 51 72 76 72 19 0 64 38 64 53 0 4 -12 7 -26 7 -31 0 -28 23 4 28 12 2
22 8 22 13 0 5 11 14 25 19 14 5 25 14 25 20 0 5 9 10 19 10 11 0 23 5 26 10
3 6 2 10 -4 10 -5 0 -16 3 -25 6 -11 4 -16 1 -16 -10 0 -11 -9 -16 -29 -16
-16 0 -31 -6 -35 -15 -7 -18 -50 -21 -44 -2 3 6 14 13 26 15 12 2 22 10 22 18
0 8 10 14 25 14 26 0 33 14 14 25 -5 4 -18 0 -28 -9 -10 -9 -27 -16 -38 -16
-11 0 -26 -7 -33 -15 -7 -8 -20 -15 -30 -15 -10 0 -23 -7 -30 -15 -7 -8 -21
-15 -31 -15 -10 0 -22 -6 -26 -14 -4 -8 -17 -15 -27 -17 -28 -6 -31 -27 -5
-31 12 -2 24 -9 27 -15 6 -19 -39 -16 -53 3 -9 13 -16 14 -31 6 -18 -10 -17
-11 8 -21 14 -5 29 -15 33 -20 10 -16 42 -13 49 5 3 9 15 14 28 12 30 -4 25
-22 -7 -26 -14 -2 -25 -8 -25 -13 0 -5 -10 -14 -22 -20 -32 -14 -63 -32 -82
-48 -14 -12 -22 -11 -56 4 -42 19 -83 14 -62 -7 23 -23 11 -35 -90 -86 -116
-59 -138 -74 -138 -92 0 -9 5 -8 18 3 11 10 35 17 58 17 21 0 52 7 68 15 35
18 79 20 74 3 -3 -7 -16 -14 -31 -16 -14 -2 -31 -10 -37 -18 -7 -8 -19 -14
-26 -14 -8 0 -71 -30 -141 -67 -325 -169 -466 -243 -583 -305 -58 -31 -143
-76 -190 -101 -47 -24 -101 -54 -120 -65 -19 -12 -57 -33 -85 -47 -55 -28
-131 -71 -185 -104 -19 -11 -44 -25 -56 -30 -19 -8 -136 -77 -174 -101 -8 -6
-22 -13 -30 -17 -16 -7 -254 -146 -280 -163 -8 -6 -24 -15 -35 -20 -11 -6 -33
-19 -50 -30 -16 -11 -43 -26 -60 -34 -16 -8 -52 -28 -80 -45 -27 -16 -70 -41
-95 -54 -25 -14 -61 -34 -80 -45 -19 -12 -57 -33 -85 -47 -27 -14 -79 -42
-115 -61 -81 -45 -231 -120 -332 -169 -78 -36 -78 -36 -78 -76 l0 -39 133 0
c72 0 206 -5 297 -11 120 -8 204 -8 310 1 130 10 286 38 329 60 9 4 63 31 121
59 112 55 124 61 155 79 11 7 27 15 35 18 8 3 20 8 25 10 6 2 19 9 30 16 24
14 24 13 160 83 61 30 151 78 200 105 50 27 104 56 120 64 17 8 53 29 80 45
28 17 59 35 70 40 31 13 50 41 50 70 0 25 2 26 70 27 46 1 86 8 116 22 51 22
105 81 118 127 7 26 12 30 37 27 16 -2 33 -8 38 -13 6 -5 31 -9 57 -9 70 0
137 49 176 128 19 40 42 52 55 29 5 -10 21 -17 39 -17 29 0 29 -1 23 -39 -6
-38 0 -63 41 -181 26 -75 43 -137 50 -177 13 -80 17 -81 140 -20 61 30 155 76
210 101 55 26 107 52 115 57 8 5 22 12 30 15 8 3 27 12 42 20 14 8 33 14 41
14 8 0 20 7 27 15 7 8 20 15 30 15 10 0 23 7 30 15 7 8 20 15 30 15 10 0 23 7
30 15 7 8 20 15 30 15 10 0 23 7 30 15 7 8 20 15 30 15 10 0 20 7 24 15 3 8
14 15 24 15 11 0 25 7 32 15 7 8 21 15 31 15 11 0 19 5 19 10 0 6 10 15 23 20
12 6 34 18 49 28 23 15 152 93 213 129 11 6 34 19 50 27 17 8 55 29 85 47 30
17 75 42 100 56 25 13 68 38 95 54 28 16 65 37 83 46 17 9 32 20 32 25 0 4 5
8 10 8 12 0 73 41 78 53 2 4 8 7 12 7 5 0 40 23 77 51 67 50 152 99 173 99 16
0 12 -21 -7 -36 -22 -17 -241 -165 -265 -179 -10 -5 -95 -57 -190 -114 -95
-58 -184 -111 -198 -119 -14 -7 -43 -23 -65 -36 -79 -44 -181 -100 -235 -128
-30 -16 -59 -33 -64 -38 -6 -6 -18 -10 -27 -10 -9 0 -22 -7 -29 -15 -7 -8 -20
-15 -30 -15 -10 0 -20 -7 -24 -15 -3 -8 -16 -15 -30 -15 -13 0 -26 -7 -30 -15
-3 -8 -16 -15 -30 -15 -13 0 -26 -7 -30 -15 -3 -8 -14 -15 -24 -15 -11 0 -25
-7 -32 -15 -7 -8 -21 -15 -32 -15 -10 0 -21 -7 -24 -15 -4 -8 -16 -15 -29 -15
-13 0 -25 -7 -29 -15 -3 -8 -14 -15 -24 -15 -11 0 -25 -7 -32 -15 -7 -8 -20
-15 -30 -15 -10 0 -23 -7 -30 -15 -7 -8 -21 -15 -31 -15 -10 0 -20 -4 -23 -8
-3 -5 -71 -42 -151 -83 -80 -41 -170 -86 -199 -101 l-53 -28 -7 -61 c-13 -125
-44 -187 -117 -236 -36 -23 -49 -26 -127 -26 -87 1 -120 9 -219 55 -51 24 -53
23 -210 -53 -67 -32 -126 -59 -131 -59 -6 0 -16 -10 -24 -22 l-15 -23 431 2
c459 3 507 6 526 28 7 8 20 15 30 15 10 0 23 7 30 15 7 8 20 15 30 15 10 0 23
7 30 15 7 8 20 15 29 15 9 0 21 4 26 9 6 6 128 70 273 143 328 165 361 183
375 197 6 6 19 11 28 11 9 0 22 7 29 15 7 8 21 15 32 15 10 0 21 7 24 15 4 8
16 15 29 15 13 0 25 7 29 15 6 17 36 21 36 5 0 -6 -10 -15 -22 -20 -34 -15
-62 -33 -71 -47 -4 -7 -17 -13 -28 -13 -11 0 -22 -7 -25 -15 -4 -8 -14 -15
-24 -15 -11 0 -22 -5 -25 -11 -4 -5 -17 -15 -28 -20 -12 -5 -35 -18 -52 -29
-16 -11 -39 -24 -50 -30 -11 -6 -47 -26 -80 -45 -59 -34 -362 -185 -420 -209
-99 -42 -127 -59 -113 -67 14 -8 245 5 302 17 16 4 232 7 480 9 443 2 845 15
1121 36 77 6 190 14 250 19 267 19 597 84 703 139 9 5 39 20 65 32 52 26 161
118 139 119 -7 0 -22 -9 -34 -20 -30 -28 -39 -25 -67 15 -29 42 -54 42 -61 0
-4 -26 -11 -31 -45 -38 -22 -5 -55 -15 -73 -23 -36 -16 -88 -19 -96 -6 -3 5 8
22 24 37 32 31 39 63 15 70 -50 16 -48 14 -34 32 12 14 11 17 -5 27 -10 6 -34
21 -53 34 -29 19 -38 21 -50 10 -29 -23 -32 -51 -10 -75 16 -19 18 -25 7 -38
-7 -8 -18 -15 -26 -15 -7 0 -18 -9 -25 -21 -8 -15 -14 -18 -22 -10 -20 20 -36
11 -39 -21 l-3 -33 -82 -3 c-69 -2 -83 0 -83 13 0 11 11 15 48 15 37 0 53 6
75 25 43 41 34 67 -50 152 -20 19 -33 42 -33 57 0 27 -23 45 -49 40 -57 -11
-71 -15 -71 -24 0 -6 6 -10 14 -10 8 0 34 -20 58 -44 23 -24 53 -49 66 -55 30
-16 30 -51 -2 -51 -13 0 -29 7 -36 15 -7 8 -18 15 -25 15 -7 0 -18 7 -25 15
-17 21 -37 19 -43 -5 -4 -17 -11 -19 -31 -14 -16 4 -36 -1 -55 -12 -42 -25
-42 -65 -1 -96 27 -20 41 -56 23 -59 -51 -8 -70 -6 -85 8 -24 22 -23 39 5 47
l22 6 -25 20 c-24 18 -24 19 -6 33 19 14 19 14 -2 35 -12 12 -31 22 -42 22
-19 0 -40 49 -40 96 0 20 -5 22 -52 19 -37 -2 -66 3 -95 17 -24 11 -50 17 -59
14 -18 -7 -10 -26 12 -26 8 0 14 -10 14 -22 0 -14 14 -32 35 -48 44 -32 42
-55 -5 -55 -33 0 -35 -2 -35 -33 0 -22 -7 -39 -20 -48 -19 -14 -33 -14 -80 1
-11 3 -28 0 -39 -8 -25 -18 -14 -50 23 -64 38 -14 53 -67 24 -88 -39 -30 -62
-16 -44 29 10 26 -17 60 -35 45 -20 -16 -34 -1 -34 36 0 22 -6 37 -17 44 -17
9 -17 10 0 28 9 11 17 35 17 55 0 28 5 37 26 47 23 10 26 9 31 -8 6 -22 69
-65 83 -56 21 13 -18 69 -74 106 -32 21 -62 39 -67 39 -5 0 -15 -11 -21 -25
-6 -14 -15 -25 -19 -25 -5 0 -15 -16 -23 -35 -10 -24 -22 -35 -35 -35 -23 0
-28 19 -9 38 8 8 3 15 -21 29 -53 30 -64 39 -57 51 4 7 25 9 55 5 32 -4 59 0
82 10 19 8 42 17 52 21 25 8 32 33 17 61 -20 37 -7 55 40 55 46 0 52 11 15 28
-30 14 -31 26 -5 52 22 22 26 40 10 40 -5 0 -10 7 -10 15 0 8 8 15 19 15 10 0
24 7 31 15 7 8 20 15 29 15 10 0 26 7 37 15 25 19 84 20 84 1 0 -8 -7 -16 -15
-20 -24 -9 -17 -38 20 -80 30 -35 36 -38 50 -26 9 8 37 15 63 17 62 3 75 9 67
32 -3 10 1 24 10 31 13 11 12 15 -11 36 -26 25 -44 24 -44 -2 0 -8 -6 -14 -12
-13 -7 1 -24 1 -38 0 l-25 -2 23 -11 c12 -6 22 -17 22 -25 0 -21 -46 -15 -62
8 -12 19 -12 27 6 61 18 39 21 40 58 34 48 -8 52 14 8 51 -32 26 -32 43 1 43
23 0 25 19 2 35 -14 10 -15 19 -7 46 8 30 14 34 47 37 20 2 37 6 37 9 0 3 -13
18 -30 33 -27 25 -30 34 -30 88 0 54 -4 64 -38 108 -81 103 -121 192 -132 294
-7 70 -31 126 -102 237 -50 78 -78 136 -78 161 0 17 -19 74 -60 182 -12 30
-25 66 -30 80 -20 61 -42 98 -80 134 -28 27 -38 42 -30 50 20 20 11 46 -16 46
-24 0 -25 -1 -18 -47 4 -27 11 -49 15 -51 14 -6 10 -32 -5 -32 -7 0 -19 -7
-26 -15 -18 -21 -47 -19 -53 5 -3 11 -17 24 -31 30 -29 10 -35 35 -11 44 9 3
15 18 15 36 l0 30 -170 0 c-135 0 -170 -3 -170 -13z m-855 -606 c3 -5 1 -13
-5 -16 -15 -9 -43 3 -35 15 8 13 32 13 40 1z m-60 -30 c3 -5 1 -13 -5 -16 -15
-9 -43 3 -35 15 8 13 32 13 40 1z m1455 1 c0 -7 -95 -82 -104 -82 -3 0 -24
-13 -48 -29 -24 -16 -63 -39 -86 -52 -24 -13 -69 -38 -100 -55 -86 -47 -318
-164 -326 -164 -4 0 -14 -7 -22 -15 -9 -8 -22 -15 -31 -15 -22 0 -10 25 15 28
12 2 22 8 22 13 0 5 10 14 23 19 12 6 36 19 52 30 17 11 39 24 50 30 11 6 34
19 50 30 17 11 39 24 51 29 11 5 50 27 85 48 35 22 71 42 79 46 8 4 42 23 75
42 33 19 69 40 80 45 11 6 38 21 60 34 41 24 75 32 75 18z m-1605 -242 c3 -6
-1 -13 -10 -16 -19 -8 -30 0 -20 15 8 14 22 14 30 1z m-70 -29 c8 -14 -13 -24
-33 -16 -14 5 -14 7 -2 15 19 12 27 12 35 1z m921 -163 c-10 -6 -20 -7 -24 -3
-9 8 20 25 31 18 5 -3 2 -10 -7 -15z m-36 -16 c0 -8 -95 -82 -106 -82 -3 0
-23 -13 -44 -30 -21 -16 -40 -30 -43 -30 -4 0 -23 -12 -44 -26 -21 -14 -47
-30 -58 -35 -11 -5 -33 -18 -50 -28 -71 -46 -453 -241 -470 -241 -7 0 -18 -7
-25 -15 -7 -8 -23 -15 -35 -15 -12 0 -28 -7 -35 -15 -7 -8 -23 -15 -35 -15
-12 0 -28 -7 -35 -15 -15 -18 -53 -20 -48 -2 3 6 14 13 26 15 11 2 26 10 32
18 7 8 20 14 30 14 10 0 23 7 30 15 7 8 21 15 31 15 10 0 20 4 23 9 3 5 43 28
88 50 46 23 110 57 143 75 33 18 83 45 110 60 28 15 57 31 65 36 8 5 51 29 95
55 44 25 87 50 95 55 8 6 24 15 35 20 11 6 43 24 70 41 28 16 64 36 82 44 17
8 34 19 38 25 7 12 35 14 35 2z m1190 -298 c0 -10 -99 -105 -155 -149 -27 -22
-56 -45 -62 -52 -21 -19 -194 -135 -228 -153 -11 -6 -33 -19 -50 -30 -16 -11
-40 -24 -52 -29 -11 -5 -24 -15 -28 -20 -3 -6 -15 -11 -26 -11 -11 0 -22 -7
-25 -15 -7 -17 -44 -21 -44 -4 0 6 9 13 20 16 11 3 20 9 20 14 0 5 10 14 23
20 30 13 56 29 97 59 19 14 42 30 52 35 39 23 201 139 318 229 119 90 140 104
140 90z m-10 -157 c0 -22 -26 -51 -38 -43 -16 10 -15 22 4 40 19 19 34 21 34
3z m-670 -327 c0 -12 -28 -25 -36 -17 -9 9 6 27 22 27 8 0 14 -5 14 -10z m-50
-29 c0 -10 -30 -24 -37 -17 -3 3 -2 9 2 15 8 13 35 15 35 2z m-61 -42 c-7 -4
-17 -5 -22 -2 -5 3 -3 9 4 14 7 4 17 5 22 2 5 -3 3 -9 -4 -14z m-49 -18 c0
-12 -20 -25 -27 -18 -7 7 6 27 18 27 5 0 9 -4 9 -9z m-50 -30 c0 -14 -18 -23
-30 -16 -6 4 -8 11 -5 16 8 12 35 12 35 0z m-50 -31 c0 -13 -28 -25 -38 -16
-3 4 0 11 8 16 20 13 30 12 30 0z m211 -106 l24 -27 -34 7 c-41 8 -45 11 -38
31 9 21 20 19 48 -11z m209 -24 c0 -5 -4 -10 -10 -10 -5 0 -10 -11 -10 -24 0
-30 -16 -42 -35 -26 -23 19 -18 39 10 46 14 3 25 10 25 15 0 5 5 9 10 9 6 0
10 -4 10 -10z m-130 -49 c14 -27 13 -31 -9 -31 -23 0 -35 15 -27 35 8 21 23
19 36 -4z m170 -46 c0 -13 -5 -27 -10 -30 -15 -9 -30 37 -18 52 14 18 28 6 28
-22z m570 -51 c0 -24 -18 -25 -34 -2 -23 32 -20 39 9 26 14 -6 25 -17 25 -24z
m-740 -4 c0 -14 -49 -60 -65 -60 -8 0 -15 2 -15 4 0 2 -3 11 -6 20 -4 11 4 20
28 30 40 17 58 19 58 6z m516 -15 c21 -32 12 -55 -21 -55 -31 0 -39 17 -26 53
13 34 26 34 47 2z m742 -21 c40 -11 26 -34 -21 -34 -50 0 -62 7 -46 27 12 14
31 16 67 7z m-1418 -19 c0 -10 -10 -15 -29 -15 -17 0 -33 -4 -36 -10 -8 -13
-45 -13 -45 0 0 14 51 39 83 40 17 0 27 -5 27 -15z m-232 -74 c3 -22 1 -23
-26 -18 -16 3 -34 1 -40 -5 -6 -6 -18 -8 -28 -4 -15 6 -15 9 7 32 31 33 82 31
87 -5z"/>
<path d="M247 8924 c-4 -4 -7 -11 -7 -16 0 -13 50 -6 53 7 2 12 -36 19 -46 9z"/>
<path d="M422 8922 c-10 -7 -7 -13 12 -25 33 -22 38 -21 34 5 -3 24 -25 33
-46 20z"/>
<path d="M637 8924 c-14 -14 -7 -25 13 -22 12 2 21 8 21 13 0 12 -24 18 -34 9z"/>
<path d="M3654 8915 c-9 -23 14 -45 26 -25 5 8 8 19 7 24 -6 17 -27 18 -33 1z"/>
<path d="M592 8893 c-15 -6 -6 -23 14 -23 8 0 14 7 14 15 0 15 -6 17 -28 8z"/>
<path d="M165 8878 c-11 -6 -27 -15 -35 -20 -17 -9 -32 -15 -56 -23 -8 -3 -12
-9 -9 -15 8 -13 62 -13 70 1 4 5 17 14 30 19 28 10 54 50 33 49 -7 0 -22 -5
-33 -11z"/>
<path d="M294 8855 c-4 -8 -17 -15 -30 -15 -13 0 -43 -13 -66 -30 -22 -16 -50
-30 -60 -30 -21 0 -81 -30 -86 -42 -2 -5 -15 -8 -28 -8 -21 0 -24 -5 -24 -35
0 -33 2 -35 36 -35 44 0 42 -20 -4 -32 -30 -8 -32 -11 -32 -55 l0 -46 23 20
c12 11 32 24 45 28 12 3 22 13 22 21 0 8 12 20 28 26 15 7 43 24 62 39 19 14
50 30 68 34 32 6 42 27 21 41 -6 3 -21 1 -34 -6 -13 -7 -31 -10 -41 -6 -14 5
-9 13 27 44 24 20 51 44 60 53 8 8 23 18 32 22 9 3 17 11 17 17 0 16 -30 12
-36 -5z"/>
<path d="M630 8860 c0 -5 16 -10 35 -10 19 0 35 5 35 10 0 6 -16 10 -35 10
-19 0 -35 -4 -35 -10z"/>
<path d="M3595 8860 c-3 -6 1 -13 10 -16 19 -8 30 0 20 15 -8 14 -22 14 -30 1z"/>
<path d="M1574 8829 c-8 -14 11 -33 25 -25 16 10 13 36 -3 36 -8 0 -18 -5 -22
-11z"/>
<path d="M3655 8830 c-4 -6 -18 -15 -32 -21 -26 -10 -23 -29 6 -29 25 0 58 37
44 51 -8 8 -13 7 -18 -1z"/>
<path d="M474 8795 c-12 -29 4 -45 45 -45 26 0 41 -5 45 -16 8 -20 61 -15 61
6 0 11 -9 14 -31 13 -28 -2 -32 1 -38 27 -5 27 -10 30 -41 30 -22 0 -38 -6
-41 -15z"/>
<path d="M3080 8701 c-93 -95 -188 -171 -242 -193 -10 -4 -18 -12 -18 -18 0
-5 -6 -10 -12 -10 -7 -1 -26 -12 -43 -25 -24 -21 -27 -27 -15 -34 17 -11 30
-5 30 13 0 8 8 16 18 20 9 3 24 9 32 14 8 5 33 17 55 28 87 41 237 174 271
242 11 20 25 41 32 45 13 9 17 28 5 26 -5 -1 -55 -49 -113 -108z"/>
<path d="M1651 8783 c-38 -7 -101 -54 -101 -74 0 -15 8 -19 35 -19 27 0 45 9
75 38 40 37 52 63 28 61 -7 -1 -24 -4 -37 -6z"/>
<path d="M1836 8771 c-14 -5 -16 -10 -7 -15 15 -9 41 -1 41 14 0 11 -7 12 -34
1z"/>
<path d="M3520 8765 c-7 -8 -19 -15 -27 -15 -7 0 -16 -7 -19 -15 -4 -8 -14
-15 -24 -15 -20 0 -36 -17 -26 -27 3 -4 18 0 33 7 16 7 41 14 56 16 27 2 77
38 77 56 0 14 -57 9 -70 -7z"/>
<path d="M1217 8732 c-26 -29 -20 -42 17 -42 67 0 91 31 40 50 -34 13 -38 13
-57 -8z"/>
<path d="M3245 8628 c-62 -63 -197 -170 -227 -181 -10 -3 -18 -14 -18 -22 0
-12 6 -15 23 -9 26 8 117 75 117 86 0 4 6 8 13 8 45 0 93 44 146 132 34 57 12
51 -54 -14z"/>
<path d="M3382 8669 c2 -6 8 -10 13 -10 5 0 11 4 13 10 2 6 -4 11 -13 11 -9 0
-15 -5 -13 -11z"/>
<path d="M3410 8635 c0 -18 36 -38 52 -29 7 4 2 13 -13 25 -29 23 -39 24 -39
4z"/>
<path d="M3354 8626 c-7 -18 19 -45 44 -46 18 0 15 8 -13 37 -21 24 -25 25
-31 9z"/>
<path d="M3760 8580 c0 -5 -14 -10 -32 -10 -36 0 -93 -39 -103 -71 -6 -18 -13
-21 -46 -16 -31 4 -40 1 -52 -16 -12 -19 -17 -20 -31 -8 -34 28 -6 -31 31 -66
29 -28 36 -29 28 -4 -7 24 19 35 35 15 17 -19 34 -18 55 6 10 11 26 20 35 20
10 0 34 11 54 25 20 14 39 25 42 25 3 0 18 9 33 21 l29 21 -22 34 c-20 31 -56
47 -56 24z"/>
<path d="M1561 8569 l-25 -10 37 -30 c20 -17 37 -35 37 -41 0 -10 -29 -7 -63
7 -16 7 -16 5 -6 -19 14 -29 49 -35 69 -11 7 8 28 15 46 15 45 0 43 16 -5 63
-40 39 -51 42 -90 26z"/>
<path d="M3470 8565 c-10 -12 -10 -15 4 -15 9 0 16 7 16 15 0 8 -2 15 -4 15
-2 0 -9 -7 -16 -15z"/>
<path d="M225 8561 c-7 -13 17 -24 40 -19 9 1 16 8 16 13 0 14 -48 19 -56 6z"/>
<path d="M1182 8480 c-12 -16 -22 -33 -22 -38 0 -11 -103 -52 -130 -52 -10 0
-20 7 -24 15 -9 24 -39 18 -133 -29 -48 -24 -110 -52 -138 -62 -27 -10 -56
-22 -62 -27 -9 -6 -19 -2 -32 14 -19 23 -20 23 -48 7 -29 -18 -40 -56 -13 -49
52 13 63 13 72 -3 5 -9 14 -16 20 -16 16 0 97 40 104 51 3 5 27 9 54 9 33 0
50 5 54 15 3 8 12 15 19 15 8 0 20 7 27 15 7 8 21 15 30 15 10 0 20 6 23 13 2
6 7 9 11 5 10 -8 -16 -48 -30 -48 -6 0 -17 -7 -24 -15 -7 -8 -20 -15 -30 -15
-10 0 -23 -6 -30 -14 -6 -8 -21 -16 -32 -18 -35 -5 -34 -28 2 -28 36 0 84 22
120 55 22 20 137 51 149 39 9 -8 -10 -34 -26 -34 -23 0 -106 -41 -120 -59 -16
-22 -7 -31 28 -31 34 0 38 -14 9 -30 -11 -6 -18 -15 -15 -21 8 -12 72 -12 79
0 6 10 87 51 100 51 4 0 23 12 42 26 39 30 44 61 12 73 -20 7 -19 9 12 19 40
14 34 24 -21 31 -52 8 -52 24 2 33 49 9 57 14 42 29 -8 8 -6 16 8 30 22 22 25
41 6 33 -8 -3 -20 2 -27 11 -19 23 -44 18 -68 -15z m8 -195 c0 -10 -10 -15
-30 -15 -20 0 -30 5 -30 15 0 10 10 15 30 15 20 0 30 -5 30 -15z"/>
<path d="M660 8440 c0 -5 7 -10 15 -10 8 0 15 5 15 10 0 6 -7 10 -15 10 -8 0
-15 -4 -15 -10z"/>
<path d="M91 8401 c-30 -10 -57 -23 -59 -29 -2 -7 -10 -12 -18 -12 -8 0 -14
-7 -14 -15 0 -13 4 -14 20 -5 17 9 20 7 26 -14 5 -20 13 -26 40 -28 52 -5 46
-23 -9 -26 -50 -3 -62 -24 -18 -30 35 -5 19 -27 -22 -30 -34 -3 -37 -6 -37
-33 0 -31 14 -39 24 -14 4 11 20 15 56 15 52 0 64 -12 30 -30 -41 -22 -24 -33
64 -46 43 -6 48 -5 43 9 -10 26 21 87 49 97 14 6 43 10 65 10 33 0 41 4 49 25
5 14 16 25 23 25 8 0 26 11 42 24 28 24 28 24 6 35 -23 13 -28 50 -9 69 9 9 8
12 -4 12 -9 0 -20 -4 -23 -10 -3 -5 -18 -10 -33 -10 -40 -1 -96 -51 -97 -86 0
-34 -19 -39 -23 -8 -3 20 -6 21 -32 11 -21 -8 -35 -8 -52 1 l-23 11 23 7 c12
3 22 10 22 15 0 17 -19 18 -60 4 -52 -18 -50 -18 -50 0 0 8 4 15 9 15 5 0 11
9 14 20 3 12 12 19 24 18 10 -2 19 1 21 7 6 16 -10 15 -67 -4z m294 -61 c0 -8
-8 -16 -17 -18 -13 -2 -18 3 -18 18 0 15 5 20 18 18 9 -2 17 -10 17 -18z"/>
<path d="M603 8413 c-14 -5 -18 -33 -5 -33 5 0 16 6 26 13 15 11 16 15 5 19
-8 3 -20 3 -26 1z"/>
<path d="M2955 8381 c-6 -6 -41 -15 -80 -21 -73 -12 -95 -20 -54 -20 14 0 35
-7 47 -16 20 -14 28 -14 55 -3 35 14 67 42 67 59 0 13 -23 13 -35 1z"/>
<path d="M3446 8375 c-3 -9 -18 -15 -36 -15 -20 0 -30 -5 -30 -15 0 -8 6 -15
14 -15 7 0 19 -7 26 -15 18 -21 35 -19 65 9 l26 25 -20 20 c-25 25 -37 26 -45
6z"/>
<path d="M2696 8342 c-3 -5 -10 -21 -15 -34 -10 -26 -10 -26 20 -11 16 8 29
18 29 23 0 13 -28 32 -34 22z"/>
<path d="M2483 8313 c-16 -3 -23 -11 -23 -29 0 -13 4 -24 9 -24 19 0 41 12 41
22 0 6 8 17 18 24 16 13 16 13 -3 12 -11 0 -30 -3 -42 -5z"/>
<path d="M2797 8246 c-38 -31 -34 -40 18 -33 39 6 45 4 45 -12 0 -14 -10 -21
-37 -26 -32 -6 -35 -8 -19 -17 28 -16 91 19 111 61 21 45 5 64 -28 33 -27 -25
-47 -28 -47 -8 0 25 -14 25 -43 2z"/>
<path d="M532 8232 c-7 -5 -10 -15 -7 -23 8 -20 -29 -45 -149 -103 l-100 -48
-92 4 c-72 2 -96 0 -110 -13 -11 -8 -31 -23 -46 -32 -26 -17 -28 -22 -28 -91
0 -50 4 -76 13 -79 9 -4 9 -7 0 -18 -7 -7 -13 -33 -13 -58 0 -42 1 -43 18 -28
22 20 32 13 32 -20 0 -18 -5 -23 -25 -23 -23 0 -25 -4 -25 -44 0 -42 1 -44 38
-54 22 -6 28 -10 16 -11 -38 -2 -54 -32 -54 -103 l0 -65 178 4 c97 3 223 11
278 19 56 8 115 14 131 14 16 0 34 5 40 11 8 8 17 8 33 -1 24 -13 121 -6 153
11 19 11 23 44 6 55 -10 6 -28 0 -92 -32 -39 -19 -87 -18 -87 1 0 20 -56 20
-90 0 -29 -17 -116 -20 -125 -4 -4 6 1 17 11 24 18 14 18 14 -3 15 -13 0 -23
-4 -23 -10 0 -14 -53 -13 -68 2 -9 9 -18 9 -37 0 -14 -7 -48 -12 -75 -12 -27
0 -52 -4 -55 -10 -7 -12 -25 -13 -25 -2 0 14 43 34 89 41 41 5 46 9 49 34 3
23 0 27 -21 27 -14 0 -30 -7 -37 -15 -7 -8 -23 -15 -37 -15 -20 0 -24 4 -21
23 2 16 11 23 30 25 15 2 34 13 42 24 17 23 11 47 -7 29 -13 -13 -64 -15 -72
-2 -3 5 3 12 14 16 28 9 44 31 50 73 8 45 48 66 76 39 35 -36 147 -3 131 38
-7 19 -33 19 -70 0 -43 -23 -47 -19 -44 42 3 53 6 59 33 72 17 8 42 20 57 28
14 7 33 13 42 13 23 0 20 -21 -4 -27 -11 -3 -20 -9 -20 -14 0 -19 34 -22 62
-6 17 9 35 17 43 17 7 0 18 7 25 15 7 8 22 15 33 15 11 0 30 9 42 20 22 21
110 70 126 70 16 0 69 43 63 52 -3 4 -13 8 -23 8 -17 0 -184 -82 -209 -102 -9
-8 -24 -7 -51 2 -21 7 -49 9 -62 5 -13 -3 -32 -9 -41 -11 -28 -8 -21 12 17 51
25 24 48 37 78 42 39 6 41 5 28 -11 -11 -13 -12 -19 -2 -29 10 -9 15 -8 25 6
7 9 23 17 35 17 31 0 61 18 61 35 0 17 -26 20 -35 5 -7 -11 -48 -14 -58 -4 -3
4 -2 15 4 25 7 14 6 19 -4 19 -8 0 -21 9 -28 20 -9 13 -19 17 -27 12z m-169
-178 c9 -10 -20 -61 -38 -68 -9 -3 -26 -1 -38 6 -21 11 -21 12 -3 22 11 6 26
19 35 29 16 17 33 22 44 11z m-225 -156 c-5 -15 -48 -24 -48 -10 0 14 12 22
33 22 10 0 17 -5 15 -12z m66 -96 c-1 -7 -2 -23 -2 -36 -1 -15 -10 -26 -24
-30 -31 -8 -48 11 -25 28 9 7 17 20 17 28 0 8 3 18 7 22 10 9 28 1 27 -12z"/>
<path d="M1210 8196 c-6 -8 -21 -16 -33 -18 -14 -2 -22 -10 -22 -23 0 -21 4
-22 85 -9 53 8 70 19 70 45 0 16 -8 19 -44 19 -26 0 -48 -6 -56 -14z"/>
<path d="M1634 8165 c-10 -8 -31 -15 -46 -15 -15 0 -31 -8 -37 -17 -9 -17 -11
-16 -34 5 -31 29 -63 23 -109 -22 -18 -18 -45 -36 -60 -40 -35 -8 -37 -38 -6
-60 37 -26 50 -21 42 19 -6 32 -4 35 18 35 31 0 66 -24 50 -34 -27 -16 -9 -34
51 -51 34 -9 70 -24 79 -32 32 -29 51 6 21 39 -10 11 -13 22 -7 27 5 5 57 11
115 15 l106 6 11 -25 c10 -22 18 -26 44 -23 20 2 34 9 36 19 4 20 -64 35 -195
44 -61 5 -96 12 -104 21 -10 12 -15 12 -35 -1 -26 -17 -74 -20 -74 -5 0 6 11
15 24 20 13 5 27 14 31 19 3 6 15 11 25 11 10 0 25 7 34 15 8 8 30 15 48 15
42 0 67 14 43 24 -27 10 -50 7 -71 -9z"/>
<path d="M2676 8149 c-25 -25 -17 -32 27 -24 32 6 35 9 24 26 -15 24 -27 23
-51 -2z"/>
<path d="M262 8139 c2 -6 8 -10 13 -10 5 0 11 4 13 10 2 6 -4 11 -13 11 -9 0
-15 -5 -13 -11z"/>
<path d="M865 8111 c-3 -5 -1 -12 4 -15 13 -8 42 4 35 15 -7 12 -31 12 -39 0z"/>
<path d="M926 8056 c-67 -35 -87 -59 -69 -77 9 -9 19 -10 35 -2 39 18 129 93
123 103 -9 15 -25 11 -89 -24z"/>
<path d="M690 8010 c-8 -5 -25 -10 -36 -10 -12 0 -27 -7 -34 -15 -7 -8 -19
-15 -28 -15 -22 0 -102 -68 -102 -87 0 -16 14 -15 78 3 18 5 21 3 16 -11 -4
-9 -16 -21 -28 -26 -11 -5 -28 -13 -36 -18 -47 -26 -80 -41 -94 -41 -9 0 -16
-4 -16 -9 0 -5 -9 -13 -20 -16 -24 -7 -26 -30 -5 -39 23 -8 18 -34 -10 -52
-35 -23 -31 -34 14 -34 30 0 42 5 55 25 9 14 21 23 25 20 15 -9 94 24 133 55
20 17 44 30 53 30 8 0 20 11 25 25 8 21 16 25 50 25 27 0 43 -5 46 -15 7 -17
40 -20 49 -4 4 5 18 14 31 19 27 11 31 28 8 37 -8 3 -20 16 -25 29 -4 13 -15
24 -23 24 -7 0 -16 7 -20 15 -3 8 -16 15 -28 15 -36 0 -54 15 -40 33 14 16 6
47 -12 47 -6 0 -18 -5 -26 -10z m23 -145 c-1 -5 -17 -12 -35 -15 -23 -4 -34
-11 -38 -28 -3 -17 -17 -28 -45 -38 -22 -7 -41 -14 -42 -14 -8 0 45 47 62 55
11 6 21 21 23 33 3 20 9 23 40 20 20 -2 36 -7 35 -13z m-224 -111 c22 -7 1
-21 -41 -27 -32 -5 -38 -3 -38 12 0 10 2 20 5 23 5 5 47 1 74 -8z"/>
<path d="M1281 7986 c-7 -8 -23 -17 -36 -20 -29 -7 -34 -26 -7 -26 23 1 77 46
64 54 -5 3 -15 0 -21 -8z"/>
<path d="M1765 7991 c-7 -12 91 -118 100 -109 4 4 -4 23 -19 42 -14 19 -26 41
-26 49 0 22 -43 36 -55 18z"/>
<path d="M2436 7940 c-24 -85 -13 -94 72 -65 71 25 168 97 156 117 -3 4 -52 8
-108 8 l-103 0 -17 -60z"/>
<path d="M1089 7954 c-17 -21 -5 -40 30 -47 52 -11 105 27 70 49 -22 13 -88
12 -100 -2z"/>
<path d="M1463 7899 c-6 -6 -32 -15 -58 -20 -25 -5 -59 -18 -74 -28 -15 -11
-46 -24 -67 -30 -21 -5 -55 -16 -75 -25 -36 -15 -36 -16 -32 -60 5 -41 2 -48
-28 -79 -19 -19 -38 -40 -44 -46 -14 -16 -84 -61 -95 -61 -6 0 -10 11 -10 25
0 18 -7 28 -25 35 -33 12 -32 28 3 36 30 8 52 22 52 35 0 15 -22 10 -36 -8
-12 -17 -13 -16 -14 4 0 12 5 23 12 25 6 2 8 10 4 17 -6 9 -11 9 -22 0 -8 -7
-27 -9 -48 -5 -26 5 -35 3 -40 -10 -3 -9 -1 -23 5 -31 7 -8 8 -17 3 -22 -15
-13 -118 -31 -141 -25 -20 5 -23 2 -23 -20 0 -21 -5 -26 -25 -26 -30 0 -30 0
-5 45 22 40 13 45 -38 19 -25 -12 -32 -22 -32 -44 0 -53 8 -61 54 -53 22 3 50
12 61 19 11 6 43 12 71 13 51 1 51 0 70 -42 10 -23 19 -44 21 -46 1 -2 83 -3
182 -2 187 2 273 -5 236 -20 -11 -4 -60 -8 -110 -8 -49 -1 -157 -8 -240 -15
-82 -8 -204 -16 -270 -17 -66 -1 -142 -5 -170 -10 -27 -5 -144 -13 -260 -18
-116 -6 -220 -13 -232 -17 l-23 -6 0 -294 0 -294 42 2 c24 1 93 1 153 -1 l110
-4 -90 -9 c-50 -6 -118 -10 -152 -10 l-63 0 0 -135 c0 -74 4 -133 8 -131 21 9
268 135 347 178 50 27 104 55 120 64 17 8 48 26 70 38 22 13 72 41 110 63 39
22 79 45 90 52 11 7 27 15 35 19 18 9 209 120 230 134 8 6 24 15 35 20 11 6
34 19 50 30 17 11 39 24 50 30 11 6 34 19 50 30 17 11 39 24 50 29 17 7 282
163 325 191 8 5 29 16 45 24 17 8 53 29 80 45 28 17 60 35 73 41 36 16 25 30
-24 30 -44 0 -46 1 -40 24 5 21 0 27 -42 46 -26 12 -54 26 -62 31 -33 20 -42
21 -61 3 -18 -16 -35 -19 -103 -16 -93 3 -120 -7 -86 -31 l22 -15 -21 -12
c-23 -12 -127 -5 -152 10 -10 7 -10 11 0 24 8 9 20 16 27 16 8 0 14 6 14 14 0
7 13 19 30 26 16 7 35 19 42 27 7 8 22 19 35 24 13 5 23 15 23 24 0 20 -46 20
-66 0 -12 -11 -20 -12 -35 -5 -26 14 -24 32 6 60 20 18 28 21 37 12 7 -7 21
-12 33 -12 19 1 19 1 1 15 -20 15 -14 35 12 35 10 0 27 7 39 15 19 13 23 13
37 -1 9 -8 16 -20 16 -25 0 -5 7 -9 17 -9 15 0 15 2 0 18 -22 24 -5 57 22 40
10 -6 32 -8 54 -4 l35 7 -22 24 c-25 27 -73 34 -93 14z m67 -329 c12 -8 9 -10
-13 -10 -16 0 -26 4 -22 10 8 12 16 12 35 0z"/>
<path d="M728 7764 c-40 -21 -52 -48 -29 -68 24 -22 31 -21 70 12 30 25 32 31
22 50 -14 26 -26 27 -63 6z"/>
<path d="M1595 7759 c-3 -4 4 -24 14 -43 12 -21 16 -38 11 -41 -16 -10 -12
-25 8 -32 9 -3 25 -13 34 -20 9 -8 22 -12 27 -8 15 9 14 52 -1 59 -9 3 -8 9 6
20 19 15 14 36 -8 36 -8 0 -19 6 -25 14 -14 16 -59 27 -66 15z"/>
<path d="M1272 7748 c7 -19 38 -22 38 -4 0 10 -9 16 -21 16 -12 0 -19 -5 -17
-12z"/>
<path d="M1460 7680 c0 -12 10 -25 23 -31 20 -9 30 -6 60 14 42 29 33 37 -39
37 -37 0 -44 -3 -44 -20z"/>
<path d="M550 7600 c-12 -8 -12 -10 2 -15 19 -7 38 1 38 16 0 12 -21 11 -40
-1z"/>
<path d="M5360 7510 c0 -6 10 -15 23 -20 12 -6 36 -19 52 -30 17 -11 39 -24
50 -30 11 -6 34 -19 50 -30 17 -11 54 -31 82 -45 29 -15 55 -30 58 -36 4 -5
15 -9 26 -9 11 0 27 -7 35 -15 19 -18 57 -20 52 -2 -3 6 -15 14 -29 15 -13 2
-28 10 -32 18 -4 8 -19 14 -31 14 -13 0 -26 7 -30 15 -3 8 -14 15 -24 15 -11
0 -25 7 -32 15 -7 8 -19 15 -26 15 -8 0 -14 4 -14 9 0 5 -13 14 -30 21 -16 7
-30 16 -30 21 0 5 -8 9 -19 9 -10 0 -24 7 -31 15 -7 8 -19 15 -27 15 -8 0 -21
7 -29 15 -18 17 -44 20 -44 5z"/>
<path d="M5800 7271 c0 -11 25 -21 52 -21 10 0 26 -7 34 -15 9 -8 27 -15 42
-15 15 0 36 -7 46 -15 11 -8 29 -15 41 -15 12 0 30 -7 41 -15 10 -8 29 -15 40
-15 12 0 27 -7 34 -15 7 -8 19 -15 27 -15 25 0 124 -83 136 -113 8 -22 27 -22
27 1 0 18 -72 95 -108 116 -11 6 -42 22 -69 34 -26 13 -61 30 -76 38 -16 8
-39 14 -51 14 -12 0 -31 7 -42 15 -10 8 -32 15 -49 15 -16 0 -39 7 -49 15 -22
16 -76 20 -76 6z"/>
<path d="M2734 7228 c-20 -38 -52 -67 -76 -68 -49 -1 -66 -30 -17 -30 20 0 45
11 70 31 39 31 69 33 69 6 0 -8 7 -20 15 -27 8 -7 15 -23 15 -35 0 -12 7 -28
15 -35 8 -7 15 -27 15 -45 0 -39 8 -65 21 -65 15 0 10 75 -6 96 -8 10 -15 33
-15 49 0 17 -7 39 -15 49 -8 11 -15 26 -15 34 0 17 -38 72 -50 72 -5 0 -17
-14 -26 -32z"/>
<path d="M4976 7185 c-13 -20 -20 -23 -35 -15 -26 13 -35 -23 -12 -44 18 -17
41 -21 41 -8 0 4 14 16 30 27 35 23 38 40 11 54 -15 9 -22 6 -35 -14z"/>
<path d="M2487 7154 c-11 -12 3 -24 28 -24 13 0 27 5 30 10 3 6 0 10 -9 10 -8
0 -21 2 -28 5 -8 3 -17 3 -21 -1z"/>
<path d="M4870 7116 c0 -18 27 -46 45 -46 24 0 26 19 5 40 -23 23 -50 26 -50
6z"/>
<path d="M5157 7124 c-11 -12 -8 -24 7 -24 7 0 21 -11 29 -24 14 -21 14 -26 2
-36 -8 -7 -15 -20 -15 -29 1 -18 65 -91 80 -91 16 0 11 50 -5 56 -24 10 -17
32 15 49 22 11 30 23 30 41 0 21 -4 25 -17 19 -32 -12 -37 -10 -41 13 -2 12
-11 22 -20 22 -9 0 -26 3 -37 6 -11 3 -24 2 -28 -2z"/>
<path d="M2442 7098 c-11 -13 -38 -31 -59 -41 -21 -10 -51 -25 -66 -33 -16 -8
-46 -14 -67 -14 -21 0 -41 -4 -45 -10 -8 -13 44 -110 99 -185 41 -55 184 -195
200 -195 8 0 19 -7 26 -15 7 -8 20 -15 30 -15 10 0 23 -7 30 -15 7 -8 25 -15
40 -15 15 0 41 -7 56 -15 45 -23 112 -20 135 8 10 12 18 27 19 33 0 6 7 17 15
24 17 14 21 70 5 70 -6 0 -13 -13 -16 -29 -3 -16 -19 -43 -35 -61 -25 -26 -35
-31 -62 -28 -79 12 -154 38 -236 83 -34 19 -178 170 -186 195 -4 11 -11 20
-16 20 -5 0 -9 7 -9 15 0 9 -7 18 -15 21 -8 4 -15 13 -15 20 0 8 -7 17 -15 20
-26 10 -18 43 13 50 108 23 126 30 163 66 21 21 39 45 39 53 0 20 -3 19 -28
-7z"/>
<path d="M5063 7099 c-47 -14 -40 -29 13 -29 37 0 45 3 42 17 -4 21 -15 23
-55 12z"/>
<path d="M4960 7050 c0 -5 5 -10 10 -10 6 0 10 -7 10 -15 0 -9 9 -15 25 -15
30 0 34 25 6 40 -25 13 -51 13 -51 0z"/>
<path d="M5570 6989 c0 -14 5 -19 17 -17 26 5 29 38 4 38 -15 0 -21 -6 -21
-21z"/>
<path d="M6320 6895 c0 -53 -4 -101 -10 -108 -5 -7 -21 -27 -36 -44 -14 -18
-33 -33 -41 -33 -8 0 -32 -13 -52 -28 -52 -41 -139 -92 -156 -92 -7 0 -16 -4
-19 -9 -6 -9 -106 -42 -201 -65 -164 -40 -554 -76 -1145 -107 -102 -5 -232
-14 -290 -19 -58 -6 -143 -10 -190 -10 -47 0 -204 -6 -350 -15 -417 -23 -691
-36 -1020 -45 -168 -5 -379 -14 -470 -20 -91 -5 -235 -10 -320 -10 -85 0 -236
-5 -335 -10 -512 -29 -1243 -30 -1598 -4 l-87 6 0 -281 0 -281 38 0 c20 0 100
7 177 15 77 9 198 22 270 30 72 8 177 20 235 26 58 7 144 14 193 16 l87 5 12
-33 c9 -26 13 -29 22 -18 6 8 28 28 49 43 28 22 41 26 49 18 9 -9 16 -8 29 4
12 11 34 14 85 12 65 -3 69 -4 72 -28 4 -34 31 -90 42 -90 17 0 11 42 -7 56
-14 10 -15 15 -6 25 17 17 43 3 43 -24 0 -14 9 -31 22 -39 20 -14 22 -22 20
-88 -3 -56 -1 -71 10 -68 8 3 14 25 16 56 3 49 13 65 27 42 3 -5 9 -78 14
-162 5 -84 14 -166 20 -183 12 -28 14 -29 25 -12 20 26 15 238 -5 297 -43 119
-50 150 -47 206 l3 59 36 1 c35 1 37 -1 43 -37 8 -48 38 -109 51 -105 17 5 17
53 1 85 -18 34 -21 77 -6 86 6 3 23 -3 38 -14 l28 -20 0 22 c-1 21 3 22 98 25
64 2 103 -1 112 -9 9 -8 14 -33 14 -78 0 -77 24 -134 59 -139 19 -3 21 -1 12
15 -5 11 -10 44 -10 75 0 30 -3 71 -6 91 -9 47 8 77 43 77 66 -1 363 44 460
70 23 6 34 5 37 -3 2 -7 9 -155 15 -330 6 -175 15 -328 19 -340 18 -46 24 34
15 197 -4 89 -8 235 -9 326 l0 165 63 7 c35 4 80 12 99 19 20 6 57 9 83 6 28
-3 76 1 116 10 38 8 87 18 109 23 22 4 60 12 85 18 43 11 109 24 273 56 160
32 195 38 257 46 36 4 92 13 125 19 100 18 196 32 280 41 44 4 114 13 155 19
197 28 735 72 880 72 111 0 348 13 415 23 88 14 314 63 385 83 86 25 209 73
275 107 66 34 175 136 175 164 0 9 7 26 15 36 15 20 21 148 9 180 -15 39 -24
9 -24 -79z"/>
<path d="M2105 6919 c-16 -10 -39 -23 -50 -29 -11 -6 -40 -22 -65 -36 -43 -25
-379 -195 -410 -208 -8 -3 -22 -10 -30 -15 -8 -5 -49 -25 -90 -45 -77 -38 -90
-44 -125 -64 -11 -6 -42 -23 -70 -37 -27 -14 -63 -34 -80 -45 -16 -11 -40 -24
-52 -30 -62 -27 -14 -30 418 -30 l441 0 38 30 c21 17 41 30 46 30 4 0 15 7 24
15 19 17 194 105 210 105 6 0 28 9 50 20 33 17 38 24 32 41 -7 18 -171 223
-232 290 l-25 27 -30 -19z"/>
<path d="M2878 6914 c-11 -11 -10 -204 1 -204 15 0 24 102 14 160 -4 28 -11
48 -15 44z"/>
<path d="M5600 6913 c1 -13 38 -53 49 -53 17 0 13 25 -7 43 -19 18 -42 23 -42
10z"/>
<path d="M4197 6236 c-4 -11 -19 -16 -46 -16 -22 0 -42 -4 -45 -9 -3 -4 -24
-11 -46 -15 -37 -6 -40 -9 -34 -29 5 -18 4 -20 -7 -9 -15 14 -69 17 -69 3 0
-5 7 -14 15 -21 25 -20 12 -90 -16 -90 -6 0 -24 -9 -40 -21 -22 -15 -28 -26
-23 -43 7 -30 -21 -54 -71 -58 -45 -3 -54 -21 -12 -26 15 -2 27 -9 27 -18 0
-14 -21 -18 -67 -14 -31 2 -29 -18 3 -30 22 -9 24 -13 14 -26 -8 -9 -10 -18
-4 -24 6 -6 26 7 53 35 42 43 46 45 103 45 64 0 98 12 98 35 0 8 11 22 25 31
14 9 25 22 25 29 0 17 23 25 71 25 39 0 53 15 24 26 -25 10 -17 23 30 46 40
19 61 48 36 48 -22 0 -19 34 5 65 27 36 25 55 -5 55 -9 0 -22 5 -28 11 -7 7
-12 6 -16 -5z m-184 -321 c1 -5 -6 -11 -15 -13 -11 -2 -18 3 -18 13 0 17 30
18 33 0z"/>
<path d="M5250 6233 c0 -13 5 -23 10 -23 13 0 13 11 0 30 -8 12 -10 11 -10 -7z"/>
<path d="M5277 6173 c-10 -10 -8 -20 6 -35 7 -7 18 -22 25 -33 10 -18 11 -16
12 16 0 43 -24 72 -43 52z"/>
<path d="M4273 6083 c-20 -8 -15 -23 7 -23 11 0 20 7 20 15 0 15 -6 17 -27 8z"/>
<path d="M5360 6020 c-7 -4 -9 -13 -6 -19 10 -16 46 -14 46 3 0 17 -23 27 -40
16z"/>
<path d="M4585 6001 c-3 -6 -18 -11 -33 -11 -43 0 -106 -11 -119 -22 -7 -6
-28 -10 -47 -10 -20 0 -40 -6 -47 -14 -6 -8 -22 -14 -35 -14 -27 0 -33 -24 -9
-34 21 -8 19 -40 -5 -61 -11 -10 -20 -22 -20 -27 0 -4 -10 -29 -21 -54 -19
-39 -20 -48 -8 -70 11 -21 11 -31 0 -57 -7 -18 -18 -54 -24 -81 -9 -42 -8 -51
6 -61 23 -17 21 -35 -4 -35 -18 0 -20 -4 -14 -30 6 -26 4 -30 -14 -30 -11 0
-24 -6 -28 -14 -15 -26 -237 -38 -828 -45 -319 -4 -586 -10 -592 -14 -7 -5
-57 -9 -110 -11 l-97 -3 3 -204 c1 -112 9 -253 17 -313 8 -61 14 -128 14 -150
0 -50 27 -230 45 -306 8 -30 17 -67 20 -82 3 -16 10 -28 16 -28 13 0 8 105
-10 200 -26 141 -40 238 -45 302 -3 38 -10 77 -16 87 -12 23 -14 188 -2 195 5
3 270 6 590 8 611 3 626 2 590 -39 -8 -10 -18 -26 -21 -35 -5 -13 -14 -16 -41
-11 -32 5 -37 3 -46 -21 -5 -14 -17 -26 -27 -26 -31 0 -137 -47 -167 -74 -16
-14 -37 -26 -47 -26 -10 0 -23 -9 -29 -19 -5 -11 -23 -22 -39 -26 -16 -3 -42
-17 -58 -31 -15 -14 -40 -28 -55 -31 -15 -3 -33 -12 -39 -19 -15 -18 -33 -18
-70 1 -28 15 -30 15 -39 -11 -10 -25 -12 -26 -29 -10 -9 9 -23 16 -29 16 -16
0 -15 21 3 46 17 25 11 34 -21 34 -14 0 -30 -10 -40 -26 -12 -17 -20 -22 -27
-15 -6 6 -19 11 -29 11 -23 0 -35 27 -19 43 22 22 13 47 -16 47 -50 -1 -77
-66 -77 -186 l0 -62 -37 5 c-41 6 -44 3 -53 -49 l-7 -38 49 0 c37 0 54 -5 68
-21 23 -25 54 -122 54 -170 0 -48 29 -131 52 -147 10 -7 23 -22 28 -33 9 -16
6 -24 -15 -43 l-26 -24 26 -20 c15 -12 47 -24 71 -28 29 -4 47 -12 51 -23 16
-55 36 -82 73 -101 22 -11 40 -25 40 -31 0 -20 -21 -49 -35 -49 -21 0 -29 -19
-10 -26 9 -4 25 2 36 12 25 22 50 5 29 -20 -18 -23 -7 -41 43 -70 39 -23 48
-25 77 -15 31 11 32 13 15 26 -26 18 -4 43 23 27 12 -8 24 -8 39 -1 12 5 29 7
38 3 14 -5 13 -9 -6 -35 -23 -31 -19 -51 10 -51 10 0 24 -7 31 -15 12 -15 10
-17 -22 -19 -10 -1 -18 -5 -18 -11 0 -5 8 -10 18 -11 9 0 39 -10 65 -22 27
-12 55 -22 62 -22 8 0 17 -4 20 -10 3 -5 27 -10 51 -10 44 0 45 1 40 28 -10
51 7 106 37 120 26 13 37 32 17 32 -5 0 -10 11 -10 23 0 13 -9 32 -20 42 -11
10 -20 23 -20 29 0 7 9 19 20 29 31 27 25 40 -15 33 -26 -5 -35 -3 -35 7 0 15
58 100 72 105 15 6 8 22 -24 52 -17 17 -43 33 -57 36 -14 3 -32 7 -38 10 -19
5 -16 45 5 60 19 14 20 12 -32 28 -8 3 -16 15 -18 28 -2 19 -11 24 -43 28 -35
5 -40 8 -47 40 -6 30 -2 42 23 78 37 52 33 75 -13 70 -26 -2 -33 1 -36 17 -3
11 -10 24 -18 28 -17 10 -18 34 -2 39 12 4 -18 58 -33 58 -23 0 -5 42 31 73
22 19 40 41 40 50 0 19 35 23 46 6 3 -6 28 -9 58 -7 46 3 51 1 54 -19 2 -13 7
-23 12 -23 4 0 11 -11 14 -25 4 -14 18 -31 31 -37 14 -6 27 -19 30 -30 4 -10
13 -18 22 -18 13 0 15 9 11 48 -3 26 -4 53 -1 60 6 17 32 15 39 -3 4 -8 18
-15 33 -15 14 0 33 -4 40 -9 12 -8 9 -11 -12 -16 -15 -4 -27 -9 -27 -11 0 -16
35 -54 50 -54 10 0 39 -20 64 -45 26 -25 52 -45 58 -45 6 0 39 -13 73 -29 83
-39 183 -61 195 -42 11 18 41 6 34 -13 -10 -26 6 -39 26 -21 17 16 21 16 42 1
31 -22 37 -20 49 10 9 25 11 26 28 10 17 -16 19 -15 34 6 l15 23 11 -27 c12
-31 14 -32 41 -18 10 5 49 11 87 14 60 3 71 0 97 -21 21 -18 38 -23 65 -21 33
3 36 1 39 -27 4 -38 15 -49 41 -40 16 5 21 15 21 44 0 20 -7 46 -15 57 -19 26
-19 34 4 34 28 0 43 -24 43 -73 0 -38 4 -48 29 -66 16 -12 29 -30 29 -41 0
-29 17 -33 40 -10 11 11 33 20 50 20 18 0 30 5 30 13 0 21 -12 28 -27 15 -23
-19 -33 4 -33 73 0 114 10 151 31 119 8 -13 12 -12 24 4 19 25 10 34 -40 38
-38 3 -40 5 -43 41 -3 32 0 38 22 47 21 8 24 13 17 32 -6 17 -19 24 -49 29
-46 6 -66 -14 -36 -36 10 -7 15 -19 11 -29 -9 -23 -24 -20 -30 6 -6 21 -6 21
-41 -5 -58 -45 -94 -30 -55 23 22 29 22 30 4 50 -10 11 -24 20 -31 20 -21 0
-28 -22 -10 -32 20 -11 21 -48 1 -48 -9 0 -15 9 -15 21 0 12 -7 27 -16 33 -20
15 -9 43 21 50 12 3 25 14 29 23 3 10 9 23 12 30 3 7 -4 13 -18 15 -19 2 -23
8 -21 33 2 17 3 35 4 40 0 6 -5 29 -12 53 -10 38 -10 44 6 56 18 13 18 14 -2
24 -15 8 -19 18 -16 37 5 22 2 25 -21 25 -46 0 -30 27 20 34 60 8 305 7 458
-3 170 -10 160 11 152 -316 -3 -143 -9 -312 -12 -375 -13 -232 36 -364 160
-428 46 -24 61 -26 161 -26 102 0 113 2 157 28 57 33 120 102 146 159 44 98
52 118 52 131 0 8 7 16 15 20 17 6 19 24 6 45 -7 10 -13 11 -30 2 -16 -9 -21
-21 -21 -51 0 -29 -4 -40 -15 -40 -10 0 -15 10 -15 34 0 18 7 39 15 46 9 8 15
30 15 57 0 24 7 60 15 80 8 19 15 45 15 57 0 11 6 50 15 86 13 61 28 150 55
330 18 119 31 387 24 480 -4 50 -14 103 -26 129 -19 43 -20 43 -59 37 -71 -11
-149 -75 -172 -139 -34 -98 -66 -288 -77 -462 -5 -71 -13 -211 -19 -310 -7
-99 -17 -211 -23 -250 -21 -132 -22 -230 -2 -285 10 -28 26 -58 36 -67 16 -14
20 -14 50 1 45 22 75 49 79 71 4 20 29 34 29 15 0 -21 -59 -96 -90 -115 -71
-42 -102 -54 -150 -57 l-55 -3 -17 50 c-22 67 -25 438 -4 605 22 171 36 371
43 593 l6 198 41 32 c23 17 46 37 51 43 14 15 206 159 225 167 8 4 29 16 45
26 17 11 50 29 75 41 25 12 59 29 76 38 17 8 39 12 49 9 15 -6 16 -21 10 -155
-3 -81 -13 -186 -21 -235 -8 -48 -14 -109 -14 -136 0 -27 -7 -65 -15 -84 -17
-40 -20 -103 -6 -111 12 -8 21 18 21 64 0 21 7 51 15 66 8 16 15 39 15 52 0
13 6 51 14 85 46 198 43 415 -7 528 -18 40 -33 49 -80 49 -50 0 -66 -16 -26
-25 34 -7 69 -31 69 -46 0 -5 -24 -20 -52 -34 -29 -15 -66 -35 -83 -45 -16
-11 -37 -23 -45 -27 -8 -3 -31 -19 -51 -35 -20 -15 -40 -28 -43 -28 -6 0 -200
-142 -234 -171 -20 -16 -81 -13 -101 5 -10 9 -22 16 -28 16 -6 0 -23 14 -37
31 -25 29 -27 30 -53 16 -56 -30 -110 -45 -208 -61 -114 -18 -482 -28 -491
-14 -4 5 5 22 19 36 50 52 73 146 43 172 -8 6 -16 24 -18 38 -3 23 -7 27 -32
24 -27 -3 -28 -2 -23 28 13 60 -35 49 -105 -25 -24 -26 -39 -34 -52 -29 -13 5
-16 13 -11 28 4 11 9 37 10 56 4 46 47 84 86 76 32 -6 35 -4 44 47 6 30 4 37
-9 37 -8 0 -18 11 -22 25 -7 29 -39 55 -68 55 -11 0 -32 12 -47 26 -17 16 -29
22 -34 15z m145 -350 c0 -12 -20 -25 -27 -18 -7 7 6 27 18 27 5 0 9 -4 9 -9z
m-180 -201 c0 -28 17 -34 30 -10 14 27 24 25 39 -6 10 -23 16 -25 44 -20 25 5
36 2 50 -14 10 -12 15 -25 12 -30 -9 -14 -92 -12 -115 2 -15 10 -22 10 -32 0
-6 -6 -22 -12 -35 -12 -21 0 -23 4 -23 53 0 30 3 57 6 60 11 10 24 -3 24 -23z
m-100 5 c0 -8 -4 -15 -10 -15 -5 0 -10 -11 -10 -23 0 -39 -29 -57 -88 -54 -34
1 -52 6 -52 15 0 6 4 12 9 12 6 0 18 14 28 30 20 34 31 37 48 14 9 -14 16 -14
33 -5 12 6 22 18 22 26 0 8 5 15 10 15 6 0 10 -7 10 -15z m842 -175 c58 -4
111 -11 117 -15 21 -12 12 -64 -15 -88 -51 -45 -67 -45 -871 -35 -730 10 -929
8 -1745 -19 -141 -5 -159 -4 -182 13 -33 25 -32 36 3 57 38 22 193 34 596 47
165 5 408 13 540 19 132 6 386 15 565 21 179 6 352 12 385 14 88 5 483 -4 607
-14z m-1234 -259 c21 -13 10 -44 -18 -51 -15 -4 -26 -15 -30 -30 -5 -22 -15
-26 -120 -45 l-115 -21 -3 -40 c-4 -53 27 -121 79 -173 23 -23 39 -44 35 -48
-8 -9 -98 68 -112 96 -7 13 -17 28 -23 34 -6 6 -11 43 -11 82 0 65 2 73 33
106 35 40 59 55 127 80 48 19 137 24 158 10z m180 -33 c-7 -20 -48 -23 -48 -4
0 11 9 16 26 16 16 0 24 -5 22 -12z m12 -96 c-1 -21 -56 -77 -64 -64 -3 5 3
17 14 27 11 10 20 26 20 35 0 9 3 20 6 23 10 10 24 -2 24 -21z m-240 -57 c0
-7 8 -19 18 -25 9 -6 10 -9 2 -6 -8 3 -23 9 -32 12 -22 8 -24 34 -3 34 8 0 15
-7 15 -15z m240 -195 c0 -11 -7 -23 -15 -26 -8 -4 -15 -12 -15 -20 0 -8 -6
-14 -14 -14 -7 0 -19 -7 -26 -15 -9 -11 -35 -15 -104 -15 -50 0 -98 5 -106 10
-20 13 -20 13 82 15 77 1 91 5 127 29 22 15 42 34 45 42 8 21 26 17 26 -6z
m-321 -39 c9 -6 10 -11 2 -15 -13 -8 -31 1 -31 15 0 11 11 11 29 0z m831 -186
c0 -7 7 -16 16 -19 8 -3 12 -11 9 -16 -4 -7 -16 -1 -32 14 -14 14 -22 30 -18
36 8 13 25 3 25 -15z m-1679 -315 c8 0 27 -14 43 -30 16 -17 36 -30 45 -30 9
0 27 -9 40 -19 l25 -19 -39 -36 c-21 -20 -41 -36 -46 -36 -20 0 -69 37 -69 53
0 10 -12 22 -26 27 -24 10 -26 14 -20 49 4 26 2 41 -6 43 -6 2 -8 10 -4 17 6
10 12 9 25 -3 10 -9 24 -16 32 -16z m2907 8 c-4 -27 -28 -36 -28 -10 0 20 8
32 22 32 5 0 8 -10 6 -22z m-2661 -298 c10 -11 23 -20 29 -20 18 0 27 -32 12
-42 -25 -15 -59 -8 -94 20 -35 28 -43 47 -21 55 27 11 58 6 74 -13z"/>
<path d="M5460 5975 c1 -51 26 -137 60 -205 18 -36 37 -73 41 -82 5 -10 9 -24
9 -32 0 -7 7 -19 15 -26 25 -21 19 -80 -12 -112 -38 -39 -21 -46 29 -12 63 42
81 53 101 60 9 3 17 10 17 15 0 5 11 14 25 19 14 5 25 14 25 20 0 14 -16 13
-32 -3 -7 -8 -32 -17 -54 -20 -35 -6 -44 -3 -62 18 -12 14 -22 30 -22 35 0 6
-9 29 -20 51 -12 22 -18 43 -16 48 3 5 -3 19 -14 31 -11 13 -20 33 -20 46 0
43 -30 139 -50 158 -20 20 -20 20 -20 -9z"/>
<path d="M2126 5921 c-8 -12 3 -41 15 -41 12 0 12 37 0 45 -5 3 -12 1 -15 -4z"/>
<path d="M6051 5801 c-20 -13 3 -23 36 -15 25 7 25 8 8 15 -26 10 -28 10 -44
0z"/>
<path d="M5980 5765 c-7 -8 -21 -15 -31 -15 -11 0 -19 -5 -19 -10 0 -6 -11
-15 -25 -20 -14 -5 -25 -14 -25 -20 0 -15 16 -12 34 5 8 8 21 15 30 15 8 0 19
6 23 14 4 8 19 16 32 18 14 1 26 9 29 16 5 17 -33 15 -48 -3z"/>
<path d="M1730 5727 c0 -29 9 -64 25 -94 32 -63 35 -46 11 71 -15 74 -36 87
-36 23z"/>
<path d="M567 5743 c-11 -11 -8 -55 8 -105 15 -48 27 -90 60 -203 9 -33 23
-73 31 -88 8 -16 14 -39 14 -52 0 -30 10 -55 21 -55 14 0 11 60 -5 110 -18 55
-46 264 -46 343 l0 57 -38 0 c-21 0 -42 -3 -45 -7z"/>
<path d="M1576 5709 c12 -64 52 -77 76 -24 14 31 5 41 -44 50 l-38 7 6 -33z"/>
<path d="M4680 5719 c0 -11 5 -17 10 -14 6 3 10 13 10 21 0 8 -4 14 -10 14 -5
0 -10 -9 -10 -21z"/>
<path d="M307 5703 c-21 -24 -39 -97 -32 -126 4 -14 20 -34 36 -46 l29 -21 16
37 c21 48 23 151 3 164 -21 13 -34 11 -52 -8z"/>
<path d="M731 5701 c-11 -20 -5 -31 16 -31 7 0 13 11 13 25 0 29 -15 33 -29 6z"/>
<path d="M0 5598 c0 -64 3 -88 10 -78 13 20 13 157 0 165 -6 4 -10 -27 -10
-87z"/>
<path d="M1672 5573 c3 -32 11 -72 18 -90 12 -28 12 -34 -3 -51 -21 -23 -21
-51 -2 -178 15 -102 22 -703 8 -717 -3 -4 -14 0 -24 9 -17 15 -18 15 -25 -10
-3 -14 -23 -58 -44 -98 -107 -203 -140 -290 -140 -367 0 -87 18 -85 73 9 14
25 42 63 62 85 47 52 98 131 112 175 7 19 15 94 19 165 5 105 10 136 26 163
11 19 24 30 29 25 4 -4 1 -50 -7 -102 -14 -90 -14 -121 3 -121 10 0 37 62 52
120 36 139 50 450 22 483 -32 40 -40 16 -52 -151 -7 -101 -13 -139 -26 -157
-10 -13 -22 -23 -28 -21 -27 8 6 254 35 264 6 2 10 18 10 37 0 18 7 49 15 68
19 45 19 77 0 136 -8 25 -22 75 -31 111 -9 36 -27 97 -39 135 -13 39 -26 85
-30 103 -4 19 -13 32 -22 32 -12 0 -14 -11 -11 -57z m94 -343 c3 -27 1 -57 -7
-75 l-12 -30 -7 30 c-10 40 -12 120 -3 128 12 13 23 -8 29 -53z"/>
<path d="M758 5573 c10 -56 8 -132 -3 -135 -5 -2 -11 13 -13 32 -4 46 -19 60
-27 27 -4 -15 0 -46 9 -74 9 -25 16 -59 16 -75 0 -15 7 -45 16 -67 18 -45 16
-142 -3 -149 -9 -2 -13 8 -13 31 0 43 -9 69 -21 61 -15 -9 -10 -71 6 -84 8 -7
15 -29 15 -49 0 -20 7 -61 15 -91 9 -33 18 -125 22 -227 5 -154 4 -175 -11
-192 -14 -15 -15 -23 -5 -45 7 -14 18 -26 24 -26 19 0 44 33 51 67 7 38 -14
375 -28 446 -6 28 -10 88 -9 132 1 48 -4 100 -14 130 -19 65 -19 110 1 130 29
29 5 195 -28 195 -4 0 -4 -17 0 -37z"/>
<path d="M1287 5545 c-4 -26 -7 -94 -7 -151 0 -102 -8 -141 -47 -219 -9 -20
-13 -52 -11 -95 3 -63 4 -65 29 -62 l26 3 6 -115 c7 -114 1 -387 -9 -436 -8
-37 -19 -10 -38 89 -11 55 -16 140 -16 252 0 104 -4 169 -10 169 -5 0 -12 -12
-15 -27 -4 -16 -13 -43 -21 -61 -8 -18 -14 -42 -14 -52 0 -11 -4 -20 -10 -20
-5 0 -10 -12 -10 -26 0 -14 4 -23 10 -19 6 3 10 15 10 26 0 23 15 25 24 4 3
-9 1 -59 -4 -113 -5 -53 -12 -124 -15 -157 -6 -61 -23 -209 -50 -435 -8 -69
-15 -179 -15 -246 0 -104 -3 -131 -25 -190 -27 -76 -31 -115 -14 -163 12 -33
5 -81 -11 -81 -6 0 -10 24 -10 53 0 29 -5 58 -11 64 -31 31 -19 279 27 553 14
84 22 345 11 356 -13 13 -27 -10 -27 -44 0 -42 -13 -71 -25 -53 -13 22 -7 173
8 205 8 17 26 55 40 84 21 44 24 58 14 73 -9 14 -8 28 6 66 9 26 17 58 17 69
0 12 7 38 15 57 19 45 21 157 3 139 -6 -6 -14 -39 -16 -72 -2 -33 -8 -60 -13
-60 -17 0 -31 85 -25 147 8 75 38 179 51 176 6 -2 12 -42 15 -90 8 -136 24
-83 28 90 4 155 -2 213 -19 186 -5 -7 -9 -25 -9 -37 0 -21 -8 -41 -41 -102 -4
-8 -18 -35 -29 -60 -12 -25 -28 -57 -36 -72 -19 -36 -18 -54 7 -88 19 -24 21
-36 15 -84 -5 -39 -12 -56 -22 -56 -11 0 -14 15 -14 64 0 36 -4 67 -9 70 -16
10 -25 -55 -23 -164 2 -109 -3 -144 -19 -135 -5 4 -9 52 -10 108 -1 139 -14
167 -22 48 -12 -158 -9 -230 10 -261 14 -25 15 -36 5 -80 -7 -28 -12 -73 -12
-98 0 -70 20 -312 36 -437 8 -63 14 -192 14 -301 0 -152 3 -194 15 -210 8 -10
15 -32 15 -47 0 -16 5 -37 11 -48 18 -35 49 -278 49 -392 0 -62 -5 -150 -10
-197 -6 -47 -15 -146 -20 -220 -18 -270 -31 -374 -49 -387 -26 -20 -28 -16
-35 50 -4 34 -14 81 -23 104 -9 26 -13 53 -8 70 l7 28 15 -30 c15 -27 17 -28
24 -10 11 28 11 227 -1 245 -15 24 -24 2 -35 -86 -5 -47 -14 -86 -20 -87 -13
-3 -27 80 -20 123 6 38 -8 90 -25 90 -6 0 -10 -82 -10 -237 0 -131 -3 -249 -7
-261 -12 -45 -23 1 -23 98 0 52 -5 140 -10 195 -6 55 -15 163 -20 240 -6 77
-14 158 -20 180 -5 22 -10 59 -10 83 0 27 -4 42 -13 42 -37 0 -50 -99 -26
-205 12 -54 11 -68 -17 -261 -2 -18 -11 -37 -18 -44 -8 -6 -18 -30 -21 -53 -4
-23 -16 -64 -27 -92 -16 -41 -18 -63 -13 -132 4 -46 5 -83 2 -83 -3 0 -15 15
-26 34 -17 27 -21 50 -21 122 0 49 7 124 15 167 24 128 19 194 -30 348 -8 26
-15 53 -15 60 0 8 -12 37 -25 64 l-25 50 0 -35 c-1 -77 -32 -111 -45 -50 -4
17 -11 27 -17 24 -6 -4 -8 -47 -4 -118 3 -61 8 -151 10 -201 4 -90 4 -90 -5
-25 -6 36 -17 87 -25 114 -8 26 -14 71 -14 100 0 28 -6 87 -15 131 -14 81 -34
204 -44 284 -11 80 -27 58 -41 -53 -13 -110 -8 -199 26 -434 15 -101 11 -192
-7 -147 -4 11 -8 33 -8 49 -1 16 -7 52 -15 80 -33 119 -52 236 -65 419 -11
137 -29 202 -56 194 -5 -2 -13 -41 -16 -88 -6 -82 -24 -165 -41 -183 -13 -16
-9 -26 11 -26 31 0 36 -20 12 -44 -21 -20 -23 -20 -35 -3 -16 21 -32 22 -40 2
-3 -8 -10 -15 -16 -15 -15 0 -12 31 4 49 15 17 46 154 46 202 0 30 20 120 45
200 8 26 15 56 15 67 0 12 5 24 10 27 13 8 30 -37 30 -82 0 -82 43 -153 92
-153 19 0 19 7 15 173 -5 164 -23 292 -45 306 -4 3 -12 15 -15 25 -15 38 -18
6 -8 -71 35 -260 39 -311 21 -283 -5 8 -10 27 -10 41 0 15 -7 32 -15 39 -8 7
-15 20 -15 29 0 9 -9 30 -20 46 -11 17 -20 47 -20 69 0 54 -20 115 -42 127
-14 8 -18 22 -18 68 0 64 -24 235 -39 284 -36 112 -52 160 -60 175 -5 9 -13
26 -18 37 -5 12 -9 -68 -11 -189 -2 -198 -1 -212 19 -255 29 -61 49 -169 49
-264 0 -59 -3 -78 -12 -75 -14 5 -31 85 -46 208 -7 56 -9 8 -7 -185 2 -143 3
-269 3 -280 0 -11 -2 -733 -3 -1605 -3 -1291 -1 -1579 9 -1550 16 43 31 38 32
-11 0 -19 7 -70 14 -112 11 -58 18 -77 30 -77 9 0 21 5 27 11 8 8 13 8 17 0 4
-6 21 -11 38 -11 l31 0 -6 68 c-3 38 -11 97 -18 131 -12 57 -12 63 7 81 27 28
76 17 119 -26 37 -36 75 -145 75 -213 0 -47 20 -56 38 -16 6 13 23 28 38 31
23 6 32 1 56 -24 17 -20 37 -32 53 -32 32 0 31 4 -4 49 -41 53 -51 74 -40 93
6 10 3 32 -8 61 -16 42 -16 48 -1 64 9 10 18 29 20 43 5 37 22 26 28 -17 4
-26 12 -41 29 -49 20 -10 39 -33 55 -69 2 -5 7 -23 11 -39 5 -22 9 -26 18 -17
8 8 8 19 -2 44 -19 45 -29 131 -18 159 l8 23 24 -29 c13 -16 31 -48 41 -70 23
-56 81 -175 103 -211 17 -30 19 -30 112 -33 75 -2 91 0 81 10 -6 6 -12 22 -12
35 0 16 -8 27 -25 33 -14 5 -29 20 -34 32 -21 55 -33 108 -28 122 7 17 27 22
27 6 0 -5 32 -42 70 -81 39 -40 70 -76 70 -80 0 -10 98 -79 113 -79 7 0 19 6
25 12 10 10 15 10 22 -2 5 -8 12 -12 15 -8 4 3 -10 23 -29 43 -36 37 -46 68
-25 81 6 4 8 20 4 40 -3 19 -2 34 3 34 19 0 32 -26 32 -65 0 -32 8 -49 41 -88
l41 -47 324 0 c307 0 324 1 324 18 0 25 41 62 68 62 32 0 142 63 142 81 0 14
-45 10 -76 -6 -16 -8 -43 -15 -61 -15 -24 0 -41 -10 -75 -45 -46 -48 -68 -56
-68 -26 0 18 49 69 100 103 21 13 23 19 14 35 -6 10 -21 19 -33 21 -11 2 -21
9 -21 17 0 12 52 64 96 95 11 8 29 27 38 42 13 20 27 28 46 28 17 0 44 13 70
35 42 35 73 44 86 24 3 -6 1 -16 -5 -22 -22 -22 -9 -27 69 -23 64 4 81 2 88
-10 8 -14 13 -14 47 0 51 21 68 21 60 -3 -3 -10 -3 -25 0 -34 8 -19 45 -29 61
-16 7 6 22 8 34 4 26 -8 27 -45 1 -45 -11 0 -32 -6 -48 -14 -95 -47 -124 -63
-180 -99 -34 -23 -65 -47 -68 -55 -3 -9 4 -25 16 -38 l21 -22 -36 -40 c-20
-22 -36 -42 -36 -46 0 -14 100 -5 130 12 30 16 32 16 44 0 12 -17 94 -18 1473
-18 l1460 0 12 26 c14 32 47 29 44 -4 l-3 -23 368 5 c348 4 486 12 577 35 22
6 72 11 111 11 59 0 73 3 79 18 6 16 7 16 19 -1 15 -19 36 -23 36 -6 0 5 14
15 31 21 28 9 29 12 15 27 -20 22 -20 50 -1 75 8 11 15 32 15 46 0 32 7 41 26
33 8 -3 14 -18 14 -33 0 -31 43 -90 66 -90 19 0 18 20 -3 35 -16 12 -16 14 0
38 9 13 25 50 35 81 20 59 35 72 40 36 2 -12 10 -24 17 -26 38 -15 90 60 79
114 -4 18 -1 32 6 37 18 11 22 0 24 -60 0 -31 5 -54 11 -52 6 1 9 22 7 45 -4
54 19 95 51 90 16 -2 23 -11 25 -31 2 -15 7 -25 12 -22 5 3 7 12 4 20 -4 9 5
17 28 23 26 6 36 16 44 43 7 18 18 34 25 35 8 0 22 2 32 2 10 1 21 12 26 24 5
13 26 43 48 68 111 129 132 171 113 233 -6 23 -20 47 -29 53 -13 10 -14 15 -3
26 10 10 14 9 18 -9 9 -34 44 -43 76 -20 31 23 35 39 13 57 -17 14 -11 30 13
30 9 0 43 18 76 40 32 22 65 40 72 40 16 0 34 -31 34 -59 0 -12 5 -21 10 -21
6 0 10 15 10 33 0 39 16 55 195 202 274 225 396 381 446 572 36 134 17 267
-34 247 -23 -9 -21 -31 3 -37 31 -8 24 -25 -12 -29 -25 -2 -34 -9 -38 -28 -9
-37 -68 -40 -105 -6 -18 17 -39 26 -59 26 -24 0 -41 10 -67 36 -24 25 -40 34
-57 31 -30 -6 -39 11 -16 28 26 19 5 40 -39 40 -26 0 -32 4 -32 22 0 14 -17
34 -50 59 -27 21 -66 51 -86 68 -102 89 -117 97 -147 90 -17 -5 -21 -1 -24 22
-2 18 -10 30 -21 32 -26 5 -67 -25 -67 -49 0 -18 4 -20 29 -14 16 3 31 2 34
-2 8 -13 -6 -66 -26 -93 -18 -25 -18 -25 -33 -5 -8 11 -12 25 -9 32 3 7 8 20
11 28 5 11 -1 15 -25 15 -34 0 -38 -6 -17 -29 10 -11 11 -23 5 -39 -9 -24 -29
-22 -29 3 0 19 -32 35 -68 35 -27 0 -32 -5 -44 -42 -9 -32 -19 -44 -36 -46
-13 -2 -25 3 -28 12 -7 17 -39 22 -49 7 -3 -6 4 -15 15 -21 29 -16 15 -30 -30
-30 -43 0 -64 -18 -31 -27 35 -9 25 -31 -16 -35 l-38 -3 -8 -62 c-7 -60 -2
-88 25 -125 11 -15 9 -21 -9 -40 -18 -18 -24 -19 -37 -8 -9 7 -16 19 -16 26 0
33 -41 12 -81 -41 -23 -30 -45 -55 -49 -55 -4 0 -10 10 -14 22 -4 19 -8 20
-18 10 -11 -11 -10 -16 5 -26 9 -7 17 -20 17 -28 0 -9 10 -23 23 -32 l22 -15
-23 -20 c-12 -11 -28 -21 -34 -23 -6 -2 -8 -10 -4 -16 11 -18 57 -15 71 5 7 9
19 14 29 10 22 -9 20 -22 -6 -35 l-23 -11 23 0 c17 -1 26 7 33 29 12 33 30 38
49 16 9 -12 6 -26 -15 -67 -28 -57 -27 -79 5 -79 28 0 25 -19 -5 -30 -34 -13
-31 -27 10 -51 38 -23 38 -39 0 -39 -17 0 -32 14 -58 53 -34 50 -85 97 -107
97 -6 0 -28 11 -50 25 -22 14 -43 25 -48 25 -5 0 -8 -30 -8 -67 l1 -68 -32 -3
c-18 -2 -33 -8 -33 -14 0 -6 -10 -8 -26 -4 -22 6 -25 4 -19 -14 7 -22 -4 -27
-22 -9 -13 13 -54 8 -54 -6 0 -5 12 -11 26 -13 15 -2 35 -12 46 -23 10 -10 28
-19 39 -19 30 0 75 25 93 53 12 19 22 22 51 19 39 -5 47 -25 24 -61 -6 -10 -8
-26 -5 -35 5 -13 11 -14 31 -5 33 15 56 5 56 -25 0 -13 7 -26 15 -30 8 -3 15
-16 15 -30 0 -23 18 -43 66 -72 18 -11 18 -13 2 -40 -21 -37 -53 -43 -69 -12
-7 13 -12 31 -11 40 4 20 -30 40 -53 32 -9 -4 -19 -19 -22 -35 -7 -34 -28 -38
-37 -7 -4 18 -8 20 -18 10 -10 -10 -9 -18 5 -42 10 -17 15 -35 11 -41 -9 -15
-74 56 -74 81 0 17 -7 20 -37 20 -60 -1 -148 -25 -151 -41 -1 -8 11 -28 28
-44 43 -41 49 -48 63 -67 9 -13 22 -16 59 -11 44 5 47 7 42 29 -8 31 1 30 43
-2 29 -22 33 -30 33 -74 0 -27 4 -51 9 -54 11 -7 -13 -79 -28 -84 -6 -2 -11 5
-11 17 0 11 -4 23 -10 26 -13 8 -13 -25 2 -80 9 -34 9 -48 1 -56 -9 -9 -15 -5
-25 15 -11 25 -13 26 -24 11 -19 -25 -34 -9 -34 35 0 41 -16 62 -31 39 -8 -12
-12 -11 -24 5 -8 10 -20 16 -28 13 -16 -6 -47 -67 -47 -91 0 -9 -8 -16 -19
-16 -10 0 -24 -7 -31 -15 -10 -12 -9 -15 8 -15 36 0 52 -12 52 -39 0 -14 4
-33 9 -40 11 -17 18 7 23 69 2 19 8 35 13 35 6 0 11 -42 13 -100 2 -73 7 -104
18 -117 15 -15 15 -20 0 -49 -19 -38 -20 -53 -4 -78 9 -15 8 -26 -6 -55 -9
-20 -21 -36 -26 -36 -5 0 -10 -12 -12 -28 -2 -19 -9 -27 -23 -27 -15 0 -21 8
-23 33 -3 31 -2 32 22 26 23 -6 26 -3 26 22 -1 16 -7 40 -15 54 -19 33 -19 69
1 91 9 10 14 25 10 34 -8 21 -26 10 -26 -16 0 -11 -12 -36 -26 -55 -15 -19
-27 -47 -28 -62 -1 -32 -38 -43 -64 -18 -20 17 -28 11 -106 -91 -26 -35 -51
-63 -55 -63 -15 0 -71 32 -71 40 0 5 5 12 10 15 14 8 13 48 -2 63 -8 8 -8 15
2 26 10 13 9 17 -4 22 -11 4 -16 18 -16 43 0 21 -7 46 -15 57 -19 25 -19 101
0 120 8 9 15 28 15 44 0 16 7 33 16 38 9 5 14 17 13 27 -5 24 -23 21 -27 -4
-2 -11 -10 -25 -18 -31 -8 -7 -14 -20 -14 -30 0 -9 -7 -31 -16 -48 -14 -29
-18 -31 -57 -26 -54 7 -97 -9 -97 -36 0 -22 33 -28 59 -11 21 13 49 -4 53 -31
2 -17 9 -22 25 -21 28 3 35 -19 27 -87 l-7 -55 -15 35 -16 35 -10 -59 c-14
-71 -30 -86 -80 -68 -41 15 -68 6 -103 -35 -29 -35 -58 -25 -49 17 3 17 1 30
-4 30 -6 0 -10 -7 -10 -15 0 -8 -4 -15 -10 -15 -5 0 -10 7 -10 15 0 7 -7 18
-16 23 -8 4 -21 28 -28 53 l-14 44 -7 -48 c-4 -27 -17 -67 -30 -90 -24 -45
-20 -45 -128 -34 -27 3 -51 8 -54 11 -11 11 -78 -6 -93 -23 -8 -10 -37 -35
-65 -57 -27 -21 -62 -52 -77 -69 -21 -23 -27 -26 -28 -13 0 9 5 20 11 24 7 4
9 22 4 50 -3 25 -1 60 6 84 7 22 10 43 6 46 -3 3 -28 -1 -56 -9 -49 -14 -51
-14 -66 9 -9 15 -25 24 -40 24 -16 0 -25 6 -25 15 0 9 9 15 24 15 29 0 39 12
30 34 -5 12 -10 13 -25 5 -15 -7 -21 -6 -25 6 -3 8 -12 15 -20 15 -9 0 -14 11
-14 29 0 33 -21 43 -76 34 -25 -4 -34 -2 -35 8 -2 26 3 44 14 51 9 5 9 10 1
18 -9 9 -27 3 -70 -20 -70 -37 -85 -34 -77 14 5 31 3 36 -21 42 -33 8 -33 18
-1 32 14 6 25 20 25 30 0 9 7 28 16 40 9 13 13 29 10 37 -7 18 -67 20 -84 3
-9 -9 -24 -9 -64 2 -31 8 -104 13 -177 13 -117 0 -127 -2 -176 -29 -46 -24
-55 -26 -70 -14 -10 8 -14 22 -11 36 7 26 -8 34 -69 34 -36 0 -47 5 -63 27
-17 23 -22 25 -35 14 -13 -10 -18 -9 -29 8 -9 14 -23 21 -45 21 -17 0 -35 4
-38 10 -3 5 -18 10 -32 10 -14 0 -51 12 -82 27 -69 34 -149 36 -190 6 -35 -27
-34 -49 2 -45 23 3 28 0 25 -15 -4 -25 -64 -54 -92 -44 -29 11 -32 37 -5 44
33 9 13 27 -29 25 -26 -1 -46 -10 -66 -30 -22 -20 -33 -25 -40 -17 -8 8 -7 13
2 16 29 11 8 24 -35 21 -39 -2 -48 -7 -51 -23 -2 -11 -7 -29 -12 -40 -4 -11
-11 -28 -14 -37 -3 -10 -12 -18 -21 -18 -8 0 -15 -4 -15 -8 0 -5 10 -8 23 -8
13 1 22 -5 22 -14 0 -8 -10 -16 -22 -18 -13 -2 -23 -7 -23 -12 0 -5 -18 -14
-40 -20 -44 -12 -47 -17 -26 -45 11 -15 21 -17 59 -12 43 6 47 4 67 -23 12
-17 20 -38 18 -48 -3 -14 -13 -16 -68 -14 -36 2 -72 10 -80 17 -8 7 -30 20
-48 29 -28 14 -31 20 -26 43 6 24 5 25 -19 19 -14 -3 -33 -9 -44 -13 -16 -6
-16 -5 -5 10 10 11 11 21 3 34 -7 13 -6 22 6 35 13 15 13 18 -6 28 -28 14 -26
24 6 54 25 23 26 26 8 32 -11 5 -20 3 -23 -4 -6 -20 -26 -14 -61 18 -37 35
-36 60 4 60 15 0 24 -4 20 -10 -7 -12 23 -26 33 -15 4 3 -1 11 -11 16 -9 6
-17 20 -17 31 0 12 -7 29 -15 39 -14 15 -14 20 5 57 12 23 31 44 43 48 12 3
44 20 70 37 44 27 52 29 84 19 51 -16 77 0 69 39 -4 23 -1 31 12 36 9 3 24 14
33 23 14 14 15 19 2 35 -11 16 -17 18 -33 7 -27 -16 -65 -15 -80 3 -7 8 -22
15 -34 15 -12 0 -30 6 -41 14 -11 7 -33 16 -48 20 -23 6 -27 9 -17 21 6 8 9
23 5 34 -4 14 2 25 24 40 16 12 36 21 45 21 8 0 20 9 26 19 6 12 21 20 37 20
36 0 109 23 114 36 7 19 -49 16 -87 -4 -29 -16 -41 -18 -52 -9 -12 10 -11 14
5 25 10 8 17 22 15 33 -4 27 15 34 44 15 25 -16 27 -16 50 6 13 12 24 26 24
31 0 4 -24 8 -54 8 -54 0 -82 14 -51 26 9 4 47 2 85 -3 65 -8 71 -8 97 14 33
27 76 31 71 7 -2 -9 -22 -24 -46 -33 -78 -31 -85 -71 -13 -71 53 0 73 13 45
28 -10 6 -15 16 -11 25 8 22 56 33 79 18 17 -10 23 -8 43 13 33 36 55 34 55
-5 0 -17 9 -42 20 -56 24 -30 26 -53 5 -53 -21 0 -19 -24 4 -44 18 -16 22 -16
50 -2 16 9 37 16 46 16 22 0 19 -21 -5 -27 -32 -8 -24 -33 10 -33 17 0 58 -9
91 -20 l60 -20 33 32 c18 18 39 43 45 56 18 35 -4 84 -24 52 -3 -5 -13 -10
-22 -10 -11 0 -14 7 -11 24 3 13 -1 31 -7 40 -12 15 -13 14 -19 -6 -7 -28 -87
-71 -94 -50 -4 14 -32 16 -32 2 0 -5 7 -10 16 -10 9 0 14 -5 12 -12 -7 -21
-22 -18 -41 7 -17 23 -16 25 2 56 21 34 123 97 129 79 7 -21 32 -10 32 15 0
30 -25 43 -52 26 -26 -16 -40 -5 -36 32 3 30 1 32 -27 30 -50 -4 -60 36 -20
83 42 49 29 81 -26 62 -20 -7 -34 -5 -58 10 -27 17 -30 21 -16 32 19 16 19 26
-1 34 -10 4 -25 -1 -35 -10 -17 -15 -19 -14 -33 20 -8 20 -12 44 -9 52 5 13 2
15 -16 9 -20 -6 -22 -4 -17 13 11 33 -25 46 -71 27 -45 -19 -66 -13 -61 17 2
18 10 23 36 25 42 2 45 5 28 29 -13 16 -18 17 -35 7 -27 -17 -31 -16 -31 2 0
8 7 15 15 15 8 0 15 5 15 10 0 6 -13 10 -29 10 -16 0 -31 6 -35 15 -8 21 -18
19 -46 -8 -20 -17 -37 -22 -85 -23 -33 0 -70 -4 -82 -8 -18 -6 -23 -5 -23 7 0
21 -19 32 -33 18 -6 -6 -18 -11 -26 -11 -11 0 -9 5 7 20 21 20 28 41 16 52 -3
4 -19 -8 -35 -25 -20 -20 -33 -27 -40 -20 -13 13 59 93 84 93 22 0 22 9 0 25
-13 10 -22 9 -42 -1 -35 -18 -45 -18 -66 6 -10 11 -28 20 -41 20 -29 0 -38 14
-19 30 8 7 15 23 15 36 0 20 -5 24 -29 24 -61 0 -48 35 25 72 24 12 44 27 44
35 0 18 -37 17 -44 -2 -6 -18 -81 -21 -91 -4 -4 5 -18 14 -31 19 -20 8 -23 14
-18 35 4 15 2 25 -5 25 -28 0 -7 20 30 27 68 14 45 28 -51 31 -90 3 -99 7 -80
40 5 9 14 29 20 45 5 15 15 27 23 27 22 0 13 53 -11 63 -12 6 -22 14 -22 19 0
18 -38 6 -62 -19 -40 -43 -58 -87 -58 -142 0 -46 -2 -50 -36 -70 -43 -26 -129
-33 -129 -12 0 8 15 19 33 23 52 14 39 31 -19 26 -63 -6 -66 -1 -45 94 9 40
17 102 19 138 3 56 7 67 26 76 22 11 22 12 4 18 -18 6 -19 16 -16 164 3 157
-1 165 -26 55 -10 -40 -29 -196 -31 -245 0 -5 -11 -8 -25 -8 -14 0 -29 -8 -35
-19 -6 -12 -10 -99 -10 -213 0 -205 -6 -234 -38 -205 -10 9 -22 14 -25 10 -12
-11 -8 -46 7 -62 26 -30 28 -59 7 -80 -28 -28 -40 -26 -52 9 -6 17 -15 30 -20
30 -5 0 -9 5 -9 11 0 6 -13 28 -30 49 -16 21 -30 43 -30 49 0 6 -5 11 -10 11
-6 0 -15 12 -21 27 -7 19 -13 23 -21 15 -8 -8 -8 -15 3 -28 16 -19 34 -50 48
-81 6 -13 15 -23 20 -23 5 0 11 -8 15 -18 3 -9 9 -24 14 -32 17 -27 42 -112
36 -121 -3 -5 -14 -9 -25 -9 -21 0 -24 -12 -8 -41 6 -12 8 -28 5 -36 -6 -14
-10 -13 -31 7 -14 13 -25 31 -25 41 0 10 -6 24 -14 32 -8 8 -16 29 -18 47 -4
42 -28 53 -28 13 0 -16 6 -37 14 -48 22 -33 27 -109 10 -150 -12 -30 -13 -49
-3 -121 9 -62 9 -88 1 -96 -23 -23 -94 50 -108 112 -3 14 -9 34 -14 45 -7 18
-9 16 -15 -13 -9 -41 -24 -50 -42 -27 -12 17 -13 17 -13 2 0 -9 5 -17 10 -17
6 0 10 -8 10 -18 0 -10 4 -22 9 -27 4 -6 25 -40 44 -77 35 -64 36 -67 23 -110
-37 -118 -46 -158 -46 -196 0 -36 -3 -42 -21 -42 -13 0 -23 10 -30 30 -6 16
-17 30 -25 30 -11 0 -14 -17 -14 -75 0 -105 -27 -98 -64 18 -11 33 -26 7 -26
-44 0 -35 -4 -49 -14 -49 -7 0 -17 8 -20 18 -15 40 -38 72 -52 72 -8 0 -22
-16 -30 -35 -14 -35 -34 -39 -34 -8 0 8 -6 27 -14 41 -8 15 -17 35 -20 45 -7
22 -26 13 -26 -12 0 -9 7 -26 15 -37 14 -19 20 -66 9 -77 -12 -12 -55 17 -60
42 -3 14 -9 34 -15 43 -5 10 -9 35 -9 55 0 21 -4 45 -10 53 -17 27 -24 -18
-11 -72 6 -27 11 -65 11 -84 0 -31 -2 -34 -19 -24 -29 15 -31 13 -31 -30 0
-38 -1 -40 -21 -29 -29 15 -37 3 -41 -56 -2 -27 -7 -49 -13 -48 -16 3 -45 133
-45 206 0 64 -2 69 -28 84 -39 22 -54 81 -59 230 -3 100 -2 123 10 123 18 0
107 -59 107 -71 0 -5 7 -9 15 -9 8 0 15 2 15 5 0 3 -21 35 -47 72 -125 181
-142 208 -169 263 -28 58 -42 100 -33 100 12 0 63 -50 72 -70 4 -8 16 -28 27
-45 11 -16 24 -40 30 -52 5 -13 15 -23 21 -23 17 0 5 55 -36 155 -22 53 -37
99 -42 127 -7 39 16 36 45 -5 12 -19 63 -76 113 -128 50 -52 112 -118 139
-146 26 -29 50 -53 54 -53 26 0 -41 92 -149 205 -91 95 -164 209 -165 258 0
14 53 -6 113 -42 86 -51 267 -234 267 -269 0 -6 6 -15 13 -19 7 -4 23 -28 36
-53 12 -25 26 -52 30 -60 31 -60 41 -84 41 -100 0 -9 7 -23 15 -30 8 -7 15
-25 15 -40 0 -34 9 -60 21 -60 15 0 10 73 -6 94 -8 11 -15 28 -15 39 0 10 -6
31 -14 45 -7 15 -24 49 -37 75 -26 52 -33 66 -64 112 -31 46 -54 73 -132 154
-40 41 -73 81 -73 89 0 8 8 21 18 28 16 12 14 14 -15 26 -38 14 -49 54 -13 45
24 -6 36 8 17 20 -43 27 -107 165 -107 235 0 14 -3 34 -6 43 -6 14 -9 14 -23
2 -9 -8 -31 -20 -49 -27 -30 -12 -33 -11 -53 14 -25 31 -35 33 -42 6 -7 -28
-37 -26 -37 3 0 12 -6 42 -14 67 -26 82 -46 178 -46 218 0 59 -11 106 -21 90
-17 -25 -10 -210 10 -263 21 -60 40 -105 52 -125 5 -8 12 -22 15 -30 3 -8 19
-42 35 -74 15 -32 26 -63 23 -67 -13 -21 -109 57 -169 136 -71 92 -89 179 -80
374 8 153 1 218 -32 289 -19 44 -13 337 10 427 32 129 70 244 132 405 9 25 19
59 22 75 3 17 12 39 19 50 8 11 14 33 14 50 0 41 15 64 31 48 21 -21 -11 -184
-61 -313 -12 -30 -24 -66 -27 -80 -3 -14 -9 -29 -13 -35 -7 -9 -25 -69 -66
-210 -13 -44 -18 -99 -18 -207 -1 -146 -1 -147 31 -210 17 -35 34 -71 37 -81
3 -11 11 -15 17 -11 8 5 10 43 5 135 -6 113 -5 129 8 129 9 0 19 -12 22 -27 4
-16 12 -39 19 -53 12 -24 28 -80 44 -150 4 -19 12 -44 18 -55 6 -11 15 -31 20
-45 8 -19 11 2 17 88 10 165 54 280 70 182 3 -22 11 -40 16 -40 13 0 13 67 0
75 -5 3 -10 15 -10 26 0 24 31 25 52 2 16 -18 73 -116 84 -143 3 -8 10 -22 15
-30 5 -8 14 -27 20 -42 6 -16 15 -28 20 -28 5 0 9 -6 9 -12 0 -19 47 -60 54
-49 4 5 1 13 -6 18 -14 9 -34 38 -44 63 -3 8 -12 27 -20 42 -8 14 -14 31 -14
37 0 6 -17 46 -37 88 -21 43 -39 81 -41 85 -2 5 7 12 20 17 23 9 39 47 59 146
4 22 12 58 18 80 27 109 41 197 41 263 0 76 -15 98 -25 35 -16 -114 -37 -236
-50 -293 -9 -36 -15 -73 -15 -82 0 -25 -26 -46 -71 -58 -37 -10 -41 -9 -64 17
-33 37 -31 43 10 43 39 0 58 22 68 77 7 38 -7 51 -32 29 -48 -43 -40 -3 14 74
42 60 57 100 36 100 -5 0 -16 -11 -24 -23 -43 -66 -162 -192 -181 -192 -14 0
-22 -8 -24 -23 -3 -20 1 -22 42 -22 25 0 46 -4 46 -10 0 -25 -101 -59 -127
-42 -7 5 -15 43 -19 93 -5 68 -3 91 10 116 9 18 16 48 16 68 0 50 30 134 88
245 28 52 67 126 86 163 20 38 36 75 36 83 0 20 -26 18 -34 -3 -5 -12 -10 -13
-18 -5 -7 7 -11 49 -10 114 2 114 -4 161 -20 152 -7 -4 -8 -43 -4 -113 6 -106
0 -160 -19 -161 -5 0 -13 16 -16 37 -3 21 -11 58 -17 83 -15 60 -57 330 -72
455 -9 78 -25 162 -46 246 -8 30 -14 62 -14 71 0 8 -11 39 -23 68 l-24 53 -6
-48z m86 -760 c2 -206 -1 -296 -10 -310 -11 -19 -12 -19 -17 5 -2 14 -7 77
-11 140 -3 63 -10 133 -15 155 -5 22 -10 88 -10 146 0 86 3 108 15 113 11 4
15 21 15 59 0 30 3 57 8 61 16 17 24 -94 25 -369z m-166 -402 c-2 -21 -4 -6
-4 32 0 39 2 55 4 38 2 -18 2 -50 0 -70z m-1066 -620 c6 -46 -5 -163 -16 -163
-10 0 -20 153 -11 177 9 22 24 15 27 -14z m1289 -2 c0 -5 -8 -23 -17 -41 -17
-29 -17 -31 0 -41 9 -5 17 -18 17 -27 0 -9 7 -26 15 -36 20 -26 20 -76 0 -76
-8 0 -15 6 -15 14 0 7 -7 19 -15 26 -9 8 -15 30 -15 56 0 24 -4 44 -10 44 -5
0 -12 11 -16 25 -3 13 -12 29 -20 36 -8 6 -11 15 -8 20 7 12 84 12 84 0z
m-256 -301 c13 -32 16 -80 16 -242 0 -258 15 -318 117 -454 28 -37 28 -44 5
-44 -19 0 -64 38 -88 76 -13 19 -20 22 -30 13 -8 -6 -14 -18 -14 -25 0 -8 -4
-14 -8 -14 -5 0 -13 -12 -20 -27 -10 -26 -11 -24 -7 17 2 25 7 144 10 265 l5
220 -29 60 c-27 57 -31 96 -6 62 19 -27 28 -20 20 16 -17 81 -17 117 -2 117 8
0 22 -18 31 -40z m-14 -1236 c0 -49 -15 -58 -30 -16 -6 15 -15 35 -20 44 -12
21 -13 52 -3 62 4 4 18 -4 30 -19 17 -19 23 -39 23 -71z m136 56 c6 -14 19
-50 28 -80 17 -55 37 -109 61 -165 13 -32 38 -96 62 -160 8 -22 21 -55 29 -73
8 -18 14 -41 14 -50 0 -10 7 -27 15 -38 8 -10 15 -35 15 -54 0 -19 7 -57 15
-84 19 -63 21 -246 3 -246 -26 1 -78 173 -78 257 0 42 -30 195 -50 259 -19 60
-63 179 -85 229 -7 17 -20 50 -30 75 -9 25 -23 60 -31 78 -20 47 -18 84 3 80
10 -2 23 -14 29 -28z m6412 11 c3 -8 -1 -12 -9 -9 -7 2 -15 10 -17 17 -3 8 1
12 9 9 7 -2 15 -10 17 -17z m-7588 -193 c10 -13 16 -27 13 -31 -6 -10 -43 27
-43 43 0 16 10 12 30 -12z m780 -67 c0 -20 -13 -41 -25 -41 -18 0 -26 25 -12
39 13 13 37 15 37 2z m229 -283 c1 -152 -6 -197 -23 -152 -8 22 -8 324 1 365
l7 34 7 -40 c5 -22 8 -115 8 -207z m2486 123 c3 -6 0 -13 -7 -18 -7 -4 -18
-17 -24 -28 -15 -27 -44 -32 -44 -8 0 38 59 80 75 54z m375 -26 c0 -3 -20 -27
-45 -53 -36 -37 -47 -44 -57 -33 -11 10 -7 16 17 34 16 12 36 30 44 39 14 17
41 25 41 13z m3157 -52 c-4 -17 -4 -17 -12 0 -4 9 -4 25 0 35 8 16 8 16 12 0
3 -10 3 -26 0 -35z m-5806 -29 c11 -44 39 -118 50 -128 5 -6 9 -19 9 -31 0
-12 7 -30 15 -41 18 -24 20 -87 3 -82 -7 3 -14 19 -16 36 -2 18 -7 32 -12 32
-5 0 -12 10 -15 23 -7 23 -40 100 -56 129 -14 27 -12 101 3 96 7 -3 16 -18 19
-34z m2519 -14 c23 0 9 -41 -17 -51 -64 -24 -97 19 -52 67 22 24 23 24 41 4
10 -11 23 -20 28 -20z m-668 -31 c11 -6 36 -11 55 -11 46 0 55 -24 19 -55 -43
-37 -116 -29 -116 12 0 15 -8 26 -20 30 -11 3 -20 13 -20 21 0 17 52 19 82 3z
m843 -47 c-12 -48 -85 -96 -85 -57 0 9 -7 18 -15 21 -29 11 -15 32 29 43 25 6
48 16 51 21 12 19 27 -2 20 -28z m-557 -11 c-13 -21 -52 -29 -62 -12 -8 12 57
52 67 42 5 -5 3 -18 -5 -30z m-2161 -56 c32 -56 53 -111 53 -141 0 -41 -16
-44 -32 -6 l-11 27 -7 -25 c-5 -14 -8 -37 -9 -52 -1 -41 -61 -62 -61 -22 0 8
-7 29 -16 45 -11 22 -13 42 -8 72 l7 42 10 -37 c5 -21 13 -38 18 -38 18 0 21
54 5 105 -36 116 -8 133 51 30z m5911 28 c-3 -34 -1 -38 18 -36 20 2 21 0 10
-22 -11 -25 -24 -29 -63 -19 -17 5 -23 14 -23 35 0 41 20 79 42 79 16 0 19 -6
16 -37z m-3912 -7 c-2 -42 -1 -42 -49 -50 -36 -7 -38 -6 -35 16 2 15 11 24 26
26 12 2 27 12 32 23 16 29 27 23 26 -15z m117 -22 c8 -8 -34 -54 -49 -54 -6 0
-17 -7 -24 -16 -8 -9 -25 -14 -44 -12 -41 4 -40 22 2 26 17 2 32 7 32 12 0 8
59 49 71 50 3 0 9 -3 12 -6z m-221 -46 c-5 -7 -12 -24 -14 -38 -2 -15 -11 -26
-22 -28 -29 -6 -126 8 -126 18 0 17 44 50 59 45 9 -2 23 0 31 5 8 5 30 10 49
10 26 0 31 -3 23 -12z m-1750 -164 c4 -38 5 -70 3 -73 -2 -2 -11 -1 -20 2 -11
5 -15 23 -15 78 0 95 22 90 32 -7z m1803 42 c17 -16 22 -27 15 -31 -7 -4 -17
-2 -23 4 -6 6 -19 11 -28 11 -19 0 -42 24 -32 33 13 14 43 6 68 -17z m130 14
c4 -6 -7 -10 -27 -9 -27 0 -30 2 -13 9 27 12 33 12 40 0z m-165 -59 c0 -5 -6
-11 -12 -14 -18 -6 -39 3 -32 14 7 12 44 12 44 0z m-1110 -381 c0 -29 1 -30
51 -30 28 0 59 -5 69 -10 13 -7 21 -7 25 0 9 15 36 12 55 -5 9 -8 45 -18 79
-21 34 -4 69 -14 77 -22 13 -12 11 -17 -13 -39 -35 -33 -106 -57 -148 -50 -21
4 -41 0 -55 -10 -18 -13 -27 -14 -41 -5 -10 7 -27 12 -36 12 -10 0 -45 13 -78
29 -48 23 -64 27 -82 18 -13 -6 -23 -15 -23 -20 0 -5 -8 -15 -17 -22 -15 -11
-16 -16 -4 -39 12 -21 12 -28 1 -41 -19 -22 -65 -45 -91 -45 -12 0 -45 -7 -73
-15 -28 -8 -64 -17 -80 -20 -17 -4 -30 -14 -34 -27 -4 -18 -10 -20 -51 -14
-54 7 -110 -10 -150 -45 -20 -17 -42 -25 -76 -27 -27 -1 -60 -9 -73 -18 -13
-9 -31 -13 -40 -9 -13 5 -11 10 13 30 17 13 41 24 55 25 14 0 40 9 58 20 26
16 31 25 27 43 -4 15 0 28 12 38 26 23 73 47 106 54 36 7 35 25 -3 25 -30 0
-136 -32 -173 -52 -37 -20 -38 8 -1 44 47 47 133 90 288 142 45 15 53 15 115
0 80 -20 79 -20 117 -43 27 -16 32 -17 50 -4 18 14 18 15 -11 39 -16 13 -43
24 -60 25 -49 1 -140 33 -140 49 0 13 26 15 155 15 148 0 155 1 156 20 2 33 3
35 24 35 16 0 20 -7 20 -30z m4978 -37 c41 -70 49 -135 17 -141 -44 -7 -47
-10 -31 -34 19 -27 21 -68 3 -68 -14 0 -47 60 -47 85 0 8 -8 19 -19 24 -10 6
-21 17 -24 25 -7 17 7 67 29 108 8 14 14 33 14 42 0 32 26 14 58 -41z m-72
-207 c24 -18 8 -38 -24 -30 -21 6 -29 24 -15 37 9 10 17 9 39 -7z m-4456 -70
c-1 -16 -47 -47 -68 -46 -9 0 -43 1 -74 1 -38 -1 -62 4 -72 15 -20 19 -22 41
-3 25 10 -8 18 -7 31 2 23 17 186 19 186 3z m-520 -96 c0 -6 9 -10 20 -10 11
0 20 -7 20 -15 0 -8 -9 -15 -20 -15 -11 0 -20 7 -20 15 0 29 -51 15 -63 -17
-3 -10 -16 -18 -28 -18 -13 0 -31 -7 -41 -17 -20 -18 -37 -11 -20 10 9 10 7
17 -8 30 -11 9 -20 24 -20 32 0 20 30 32 40 15 8 -12 58 -7 90 10 16 9 50 -5
50 -20z m4984 -11 c-9 -15 -24 10 -17 29 5 12 7 12 15 -2 5 -9 6 -21 2 -27z
m-4667 15 c3 -8 -4 -25 -16 -38 -15 -15 -19 -26 -12 -31 37 -22 -21 -55 -61
-34 l-22 12 24 9 c34 13 35 15 15 38 -18 19 -17 21 5 40 28 24 58 26 67 4z
m-502 -30 c9 -14 15 -27 13 -29 -12 -12 -80 -20 -115 -14 -23 5 -75 4 -115 0
-66 -7 -88 -15 -162 -58 -11 -7 -35 -13 -52 -13 -20 0 -41 -9 -57 -26 -16 -16
-34 -24 -49 -22 -27 4 -33 24 -19 61 9 22 17 27 46 27 20 0 48 6 63 14 15 8
63 26 107 41 72 25 124 33 296 43 19 2 32 -6 44 -24z m306 -29 c0 -5 -12 -11
-26 -13 -18 -2 -25 1 -25 13 0 12 7 15 25 13 14 -2 26 -7 26 -13z m-97 -11
c29 -11 16 -31 -37 -57 -30 -14 -59 -33 -66 -41 -7 -9 -29 -18 -50 -22 -59
-10 -118 -41 -220 -116 -68 -51 -91 -59 -91 -32 0 47 119 145 220 182 68 24
145 50 173 56 15 4 30 13 33 21 7 16 14 18 38 9z m5016 -23 c0 -13 -26 -32
-33 -24 -4 3 -7 17 -7 30 0 21 3 22 20 13 11 -6 20 -14 20 -19z m-3736 -47
c23 -9 20 -24 -4 -24 -11 0 -20 7 -20 15 0 17 2 18 24 9z m107 -31 c0 -5 2
-23 5 -40 3 -29 1 -33 -19 -33 -25 1 -57 22 -57 38 0 22 69 56 71 35z m173
-78 c12 -9 17 -22 13 -35 -6 -23 -5 -23 79 -20 47 1 63 -2 67 -14 8 -20 69
-31 96 -17 13 8 21 8 21 2 0 -6 11 -18 25 -27 23 -15 28 -15 77 2 29 10 57 22
62 26 17 14 26 9 88 -52 34 -33 67 -60 74 -60 6 0 23 9 37 20 16 13 28 17 32
10 7 -12 -33 -49 -52 -50 -21 0 -14 -27 8 -33 36 -10 11 -30 -28 -22 -23 4
-53 -1 -93 -15 -44 -16 -64 -18 -77 -11 -16 9 -14 11 13 17 30 6 65 47 51 60
-11 11 -77 -20 -83 -39 -10 -30 -39 -16 -42 21 -4 40 -26 51 -52 27 -25 -23
-25 -32 0 -40 28 -9 25 -21 -10 -35 -32 -13 -55 -5 -30 10 13 8 11 12 -8 26
-13 9 -21 22 -18 30 3 8 1 14 -4 14 -5 0 -11 -8 -14 -18 -9 -27 -53 -49 -68
-34 -7 7 -26 12 -43 12 -18 0 -37 8 -48 20 -9 11 -24 20 -33 20 -11 0 -14 6
-9 20 5 15 2 20 -12 22 -10 0 -22 2 -28 3 -5 2 -20 3 -33 4 -13 1 -26 10 -31
24 -5 12 -21 35 -35 50 -30 33 -35 76 -8 79 9 0 29 0 45 -1 15 -1 27 3 27 8 0
15 21 13 44 -4z m1754 -151 c-5 -28 -28 -29 -28 -1 0 13 3 27 7 31 10 10 25
-10 21 -30z m-54 -43 c3 -5 -1 -14 -8 -20 -16 -13 -32 2 -21 19 8 12 22 13 29
1z m291 -21 c4 -6 -7 -23 -24 -39 -17 -16 -31 -34 -31 -40 0 -14 -37 -15 -45
-1 -6 10 15 50 28 50 4 0 17 9 29 20 24 22 34 25 43 10z"/>
<path d="M3805 1751 c-6 -11 9 -23 19 -14 9 9 7 23 -3 23 -6 0 -12 -4 -16 -9z"/>
<path d="M1725 780 c-16 -18 -17 -23 -5 -30 16 -10 67 17 70 35 2 20 -46 16
-65 -5z"/>
<path d="M1653 783 c9 -2 25 -2 35 0 9 3 1 5 -18 5 -19 0 -27 -2 -17 -5z"/>
<path d="M1545 660 c3 -5 13 -10 21 -10 8 0 14 5 14 10 0 6 -9 10 -21 10 -11
0 -17 -4 -14 -10z"/>
<path d="M3784 159 c-7 -12 15 -31 31 -26 6 2 11 11 13 20 4 19 -32 24 -44 6z"/>
<path d="M468 5534 c-4 -3 -4 -29 -1 -58 3 -29 1 -61 -5 -72 -14 -27 5 -85 36
-108 24 -18 24 -18 17 5 -5 13 -11 71 -14 128 -5 94 -15 124 -33 105z"/>
<path d="M1062 5495 c-14 -54 -16 -148 -2 -124 9 16 26 169 18 169 -2 0 -9
-20 -16 -45z"/>
<path d="M1920 5407 c0 -19 5 -48 11 -64 6 -15 15 -48 19 -73 l9 -45 -4 50
c-8 114 -35 214 -35 132z"/>
<path d="M954 5403 c-3 -10 -12 -35 -20 -56 -19 -50 -20 -291 -1 -285 29 10
46 90 46 226 1 84 -3 132 -9 132 -6 0 -13 -8 -16 -17z"/>
<path d="M2000 5306 c0 -112 11 -157 24 -95 8 40 8 157 0 187 -14 52 -24 14
-24 -92z"/>
<path d="M446 5293 c-14 -14 -5 -71 14 -88 28 -26 35 -13 20 40 -13 46 -22 60
-34 48z"/>
<path d="M1437 5263 c-3 -5 -2 -15 2 -22 7 -10 10 -10 16 -1 4 6 3 16 -3 22
-5 5 -12 6 -15 1z"/>
<path d="M1550 5205 c0 -31 7 -72 15 -92 8 -19 15 -44 15 -54 0 -9 6 -24 13
-31 7 -7 18 -24 25 -38 11 -22 12 -20 7 25 -3 28 -8 86 -11 130 -5 65 -10 83
-28 97 -32 27 -36 23 -36 -37z"/>
<path d="M224 5143 c-37 -84 -54 -158 -54 -237 0 -70 2 -79 25 -99 27 -23 45
-97 45 -184 0 -24 2 -43 4 -43 2 0 11 -3 20 -6 10 -4 16 -1 16 7 0 7 10 23 21
36 l22 22 -18 93 c-24 125 -22 120 -46 113 l-22 -7 5 176 c2 97 4 176 3 176 0
0 -10 -21 -21 -47z"/>
<path d="M6183 4860 c0 -25 2 -35 4 -22 2 12 2 32 0 45 -2 12 -4 2 -4 -23z"/>
<path d="M2142 4843 c-16 -6 -142 -265 -142 -292 0 -12 3 -21 7 -21 17 0 63
56 63 77 0 24 11 50 69 157 40 75 41 95 3 79z"/>
<path d="M2279 4809 c-1 -2 -3 -47 -4 -99 -3 -99 1 -134 14 -125 10 6 8 211
-2 221 -4 4 -8 5 -8 3z"/>
<path d="M1616 4697 c-9 -33 -7 -67 3 -67 19 0 30 73 12 84 -5 3 -11 -4 -15
-17z"/>
<path d="M710 4668 c0 -48 13 -78 25 -58 9 15 -4 100 -16 100 -5 0 -9 -19 -9
-42z"/>
<path d="M2727 4671 c-21 -13 -25 -21 -16 -26 7 -5 19 0 28 12 9 11 23 22 31
26 13 5 13 6 0 6 -8 1 -28 -8 -43 -18z"/>
<path d="M1917 4573 c-4 -3 -7 -19 -7 -35 0 -16 -5 -39 -12 -51 -7 -14 -13
-84 -14 -184 -3 -160 -14 -219 -49 -263 -21 -26 -45 -191 -45 -304 0 -144 40
-283 90 -314 25 -15 25 -14 -4 45 -54 111 -68 235 -40 344 11 41 23 69 31 69
7 0 13 -8 13 -19 0 -42 64 -211 80 -211 5 0 12 -11 16 -25 4 -14 9 -24 11 -21
6 6 -13 122 -28 176 -13 43 -39 179 -38 200 0 12 2 11 10 -3 13 -23 55 -67 63
-67 11 0 7 54 -8 106 -8 27 -17 100 -21 163 -6 102 -4 116 12 135 11 11 24 33
31 48 11 26 9 29 -19 44 -17 8 -33 13 -37 10 -3 -3 -8 -62 -12 -131 -4 -69 -9
-127 -12 -130 -9 -9 -21 140 -19 233 1 56 6 91 16 105 25 36 17 106 -8 80z"/>
<path d="M2066 4541 c-14 -22 56 -117 77 -104 5 3 1 13 -7 22 -9 10 -16 22
-16 27 -1 19 -47 66 -54 55z"/>
<path d="M2213 4494 c-3 -9 1 -31 10 -48 9 -17 17 -42 19 -55 2 -14 9 -26 16
-29 18 -6 16 63 -3 78 -8 7 -15 23 -15 36 0 29 -18 41 -27 18z"/>
<path d="M262 4421 c2 -7 7 -12 11 -12 12 1 9 15 -3 20 -7 2 -11 -2 -8 -8z"/>
<path d="M605 4323 c2 -21 7 -162 10 -313 4 -151 10 -291 14 -310 l8 -35 9 30
c11 37 12 576 1 628 -6 27 -13 37 -28 37 -16 0 -19 -5 -14 -37z"/>
<path d="M778 4308 c-6 -44 23 -473 37 -555 8 -45 15 -99 15 -120 0 -21 3 -49
7 -62 6 -23 7 -23 14 -5 4 10 8 44 9 74 1 72 -27 427 -41 510 -6 36 -14 89
-19 118 -10 61 -17 74 -22 40z"/>
<path d="M5062 4298 c3 -7 19 -14 37 -16 24 -3 32 0 29 10 -3 7 -19 14 -37 16
-24 3 -32 0 -29 -10z"/>
<path d="M2120 4262 c0 -16 7 -35 15 -42 8 -7 15 -23 15 -35 0 -12 7 -28 15
-35 8 -7 15 -18 15 -25 0 -15 70 -157 81 -165 4 -3 8 -14 10 -24 2 -11 10 -21
17 -24 17 -5 15 33 -3 48 -8 7 -15 23 -15 35 0 12 -7 28 -15 35 -8 7 -15 19
-15 27 0 8 -6 27 -14 41 -7 15 -22 45 -32 67 -10 22 -24 47 -31 55 -6 8 -13
26 -15 39 -5 37 -28 39 -28 3z"/>
<path d="M5128 4191 c-24 -17 -37 -34 -38 -48 0 -32 21 -28 58 10 53 55 40 80
-20 38z"/>
<path d="M2094 4186 c-3 -9 1 -27 10 -41 9 -13 16 -35 16 -48 0 -13 7 -32 15
-43 8 -10 15 -32 15 -47 0 -15 7 -30 15 -33 8 -4 15 -14 15 -24 0 -28 11 -51
21 -44 14 8 11 40 -6 54 -8 7 -15 27 -15 44 0 18 -7 41 -15 52 -8 10 -15 29
-15 41 0 12 -7 28 -15 37 -8 8 -15 24 -15 35 0 25 -18 37 -26 17z"/>
<path d="M2673 4165 c0 -22 2 -30 4 -17 2 12 2 30 0 40 -3 9 -5 -1 -4 -23z"/>
<path d="M6090 4183 c0 -12 16 -34 67 -89 22 -24 43 -32 43 -15 0 11 -64 81
-75 81 -4 0 -14 8 -21 18 -8 10 -13 12 -14 5z"/>
<path d="M260 4113 c0 -47 10 -87 62 -245 15 -48 28 -95 28 -105 0 -11 7 -28
15 -39 8 -10 15 -37 16 -59 0 -22 4 -51 8 -65 7 -24 8 -23 14 10 7 33 -1 91
-38 260 -7 36 -22 106 -31 155 -18 90 -38 134 -61 135 -9 0 -13 -16 -13 -47z"/>
<path d="M2011 4108 c-1 -21 3 -38 8 -38 5 0 11 -24 14 -52 2 -29 10 -69 17
-88 17 -48 40 -102 51 -120 5 -8 13 -25 19 -37 5 -13 14 -23 20 -23 13 0 13
47 0 55 -5 3 -14 20 -19 38 -5 18 -19 57 -31 87 -12 30 -25 69 -30 86 -4 18
-11 38 -16 45 -5 8 -14 30 -20 49 l-12 35 -1 -37z"/>
<path d="M4956 4044 c-9 -24 -8 -26 14 -19 15 5 21 0 26 -20 8 -32 43 -53 55
-34 5 8 9 20 9 27 0 6 5 12 10 12 6 0 10 8 10 18 -1 16 -2 16 -15 -2 -13 -17
-15 -17 -48 8 -39 30 -52 32 -61 10z"/>
<path d="M3750 4008 c0 -19 2 -20 10 -8 13 19 13 30 0 30 -5 0 -10 -10 -10
-22z"/>
<path d="M892 3989 c1 -13 8 -23 13 -21 15 3 12 35 -3 40 -9 3 -13 -3 -10 -19z"/>
<path d="M6320 3943 c0 -13 50 -56 57 -50 3 4 -5 18 -18 32 -24 25 -39 32 -39
18z"/>
<path d="M6470 3823 c0 -13 50 -56 57 -50 3 4 -5 18 -18 32 -24 25 -39 32 -39
18z"/>
<path d="M2002 3786 c1 -10 8 -17 13 -17 15 1 12 24 -3 29 -9 3 -13 -2 -10
-12z"/>
<path d="M2726 3785 c-8 -21 -6 -381 3 -420 5 -25 8 -17 18 45 9 52 10 122 4
227 -7 150 -12 180 -25 148z"/>
<path d="M6540 3761 c0 -11 31 -24 39 -16 3 3 -1 10 -9 15 -19 12 -30 12 -30
1z"/>
<path d="M2210 3716 c0 -48 60 -194 117 -284 15 -24 22 -29 26 -19 3 8 -1 23
-8 34 -8 10 -15 28 -15 40 0 12 -6 37 -14 55 -8 18 -22 53 -31 78 -51 129 -75
161 -75 96z"/>
<path d="M6592 3729 c2 -7 10 -15 17 -17 8 -3 12 1 9 9 -2 7 -10 15 -17 17 -8
3 -12 -1 -9 -9z"/>
<path d="M5143 3693 c-58 -37 -92 -78 -77 -93 12 -12 139 101 133 116 -2 6
-27 -4 -56 -23z"/>
<path d="M6680 3673 c0 -14 53 -53 63 -46 5 3 1 10 -9 16 -11 6 -23 16 -27 24
-8 14 -27 18 -27 6z"/>
<path d="M2030 3623 c1 -54 32 -155 51 -162 14 -4 7 79 -14 153 -19 67 -37 72
-37 9z"/>
<path d="M5420 3590 c0 -11 4 -20 9 -20 11 0 22 26 14 34 -12 12 -23 5 -23
-14z"/>
<path d="M3215 3581 c-5 -10 7 -18 101 -65 61 -31 84 -33 84 -7 0 19 -52 51
-83 51 -8 0 -31 7 -50 15 -43 18 -44 18 -52 6z"/>
<path d="M5180 3576 c0 -9 7 -16 16 -16 9 0 14 5 12 12 -6 18 -28 21 -28 4z"/>
<path d="M5654 3575 c-14 -35 31 -48 59 -17 24 27 21 32 -18 32 -22 0 -38 -6
-41 -15z"/>
<path d="M5543 3563 c-21 -7 -15 -33 7 -33 11 0 20 6 20 14 0 18 -11 25 -27
19z"/>
<path d="M5440 3550 c0 -5 7 -10 15 -10 8 0 15 5 15 10 0 6 -7 10 -15 10 -8 0
-15 -4 -15 -10z"/>
<path d="M1580 3516 c0 -24 16 -43 27 -32 8 8 -6 56 -17 56 -6 0 -10 -11 -10
-24z"/>
<path d="M5740 3525 c-14 -8 -35 -19 -47 -24 -28 -13 -29 -23 -5 -42 11 -10
29 -13 52 -9 l35 6 -24 13 -24 13 32 14 c18 8 31 19 29 26 -6 18 -21 19 -48 3z"/>
<path d="M5206 3449 c-20 -41 -16 -46 14 -14 17 18 21 28 13 36 -8 8 -15 1
-27 -22z"/>
<path d="M3461 3461 c-10 -7 -8 -12 10 -25 21 -14 25 -14 39 -1 13 14 13 17 0
25 -19 12 -31 12 -49 1z"/>
<path d="M5385 3452 c-11 -10 -33 -34 -49 -54 l-28 -37 36 6 35 5 -6 -38 -6
-38 29 21 c16 11 46 28 67 38 37 17 67 58 67 90 0 17 -11 20 -25 6 -6 -5 -27
-13 -47 -16 -31 -6 -38 -4 -38 8 0 24 -13 27 -35 9z"/>
<path d="M5637 3463 c-4 -3 -7 -17 -7 -30 0 -18 5 -23 25 -23 27 0 32 16 11
43 -14 19 -19 20 -29 10z"/>
<path d="M556 3394 c-10 -25 4 -213 21 -289 22 -98 22 -97 36 -92 9 3 12 42
11 153 -2 129 -5 155 -23 197 -23 49 -35 58 -45 31z"/>
<path d="M5785 3400 c-8 -13 20 -24 40 -16 8 3 15 10 15 16 0 13 -47 13 -55 0z"/>
<path d="M1680 3387 c0 -35 25 -97 38 -95 7 2 13 6 13 11 -1 4 -1 15 -1 25 -1
24 -50 83 -50 59z"/>
<path d="M5572 3375 c-17 -14 -41 -25 -55 -25 -26 0 -37 -16 -37 -53 0 -11 -6
-28 -14 -36 -7 -9 -16 -31 -20 -50 -5 -29 -4 -32 12 -26 30 14 79 17 86 6 4
-7 19 -4 41 9 19 11 41 17 50 14 9 -4 18 1 22 12 3 11 18 34 31 52 22 29 23
32 5 32 -10 0 -26 9 -36 20 -20 24 -30 25 -47 5 -7 -8 -19 -15 -27 -15 -11 0
-14 -7 -10 -27 7 -35 -8 -63 -33 -63 -22 0 -27 15 -9 26 6 3 8 16 5 28 -6 23
21 55 56 68 16 7 32 48 18 48 -5 0 -22 -11 -38 -25z"/>
<path d="M1547 3373 c-7 -12 10 -118 22 -141 6 -11 11 -30 11 -42 0 -12 6 -31
12 -43 7 -12 18 -42 24 -67 l12 -45 1 40 c1 61 -25 225 -43 268 -15 35 -30 46
-39 30z"/>
<path d="M2148 3365 c-9 -10 7 -58 21 -63 9 -3 11 6 9 29 -3 31 -17 47 -30 34z"/>
<path d="M1644 3316 c-3 -8 1 -28 9 -43 32 -60 77 -159 77 -169 0 -7 7 -17 15
-24 8 -7 15 -23 15 -35 0 -12 7 -28 15 -35 8 -7 15 -19 15 -27 0 -9 7 -36 15
-62 8 -25 17 -57 20 -71 3 -15 21 -35 46 -50 40 -25 96 -81 174 -175 91 -110
143 -133 76 -33 -35 52 -72 116 -106 183 -28 55 -37 69 -77 133 -16 24 -28 50
-28 58 0 7 -7 14 -15 14 -9 0 -15 -9 -15 -24 0 -13 7 -29 15 -36 8 -7 15 -20
15 -30 0 -10 7 -23 15 -30 8 -7 15 -17 15 -23 0 -6 7 -18 16 -28 10 -11 12
-19 5 -24 -6 -3 -14 1 -17 9 -3 9 -11 16 -18 16 -6 0 -19 12 -29 25 -26 36
-107 196 -107 211 0 7 -6 25 -14 41 -7 15 -21 46 -31 68 -9 22 -24 52 -31 67
-8 14 -14 33 -14 41 0 8 -7 17 -15 21 -8 3 -15 12 -15 20 0 21 -19 30 -26 12z"/>
<path d="M2034 3316 c-4 -10 1 -24 10 -35 9 -10 16 -23 16 -30 0 -7 6 -25 14
-39 8 -15 32 -62 53 -105 55 -113 63 -127 74 -127 15 0 10 40 -6 46 -8 4 -15
16 -15 29 0 12 -7 28 -15 35 -8 7 -15 19 -15 27 0 8 -6 27 -14 41 -8 15 -24
47 -36 72 -47 97 -57 110 -66 86z"/>
<path d="M2310 3287 c0 -9 31 -64 50 -87 23 -29 28 -10 8 31 -10 21 -58 68
-58 56z"/>
<path d="M410 3213 c0 -87 10 -173 21 -173 13 0 21 105 13 171 -13 89 -34 91
-34 2z"/>
<path d="M964 3233 c-21 -128 1 -455 31 -465 22 -7 30 404 8 490 -9 39 -31 25
-39 -25z"/>
<path d="M1854 3176 c-3 -9 1 -27 10 -41 9 -13 16 -33 16 -43 0 -10 7 -27 15
-38 8 -10 15 -27 15 -37 0 -10 7 -20 15 -23 8 -4 15 -12 15 -20 0 -8 7 -14 15
-14 19 0 19 11 0 47 -8 15 -25 52 -37 81 -13 28 -26 52 -30 52 -5 0 -8 9 -8
19 0 26 -18 37 -26 17z"/>
<path d="M1940 3161 c0 -5 7 -14 15 -21 8 -7 15 -23 15 -35 0 -12 7 -28 15
-35 8 -7 15 -20 15 -30 0 -10 7 -23 15 -30 8 -7 15 -20 15 -30 0 -10 7 -23 15
-30 8 -7 15 -18 15 -26 0 -7 6 -17 13 -21 7 -4 18 -19 24 -33 11 -24 12 -24
12 -3 1 12 -3 25 -9 28 -5 3 -10 17 -10 29 0 13 -7 29 -15 36 -8 7 -15 20 -15
30 0 10 -7 23 -15 30 -8 7 -15 18 -15 25 0 7 -7 18 -15 25 -8 7 -15 21 -15 32
0 10 -6 21 -14 24 -8 3 -16 14 -19 25 -5 19 -27 27 -27 10z"/>
<path d="M5478 3148 c-34 -18 -43 -38 -17 -38 13 0 69 42 69 52 0 12 -11 9
-52 -14z"/>
<path d="M2210 3123 c0 -16 7 -38 15 -49 8 -10 15 -30 15 -44 0 -14 7 -36 16
-48 11 -16 12 -26 5 -39 -10 -16 -11 -16 -17 5 -3 12 -13 22 -20 22 -19 0 -18
-29 1 -36 8 -4 15 -11 15 -18 0 -13 88 -106 101 -106 11 0 11 6 0 28 -5 9 -17
37 -26 62 -9 25 -23 58 -31 73 -8 16 -14 39 -14 51 0 12 -6 31 -14 42 -8 11
-16 33 -18 49 -4 39 -28 46 -28 8z"/>
<path d="M1470 3038 c0 -44 3 -59 10 -48 13 20 13 97 0 105 -6 4 -10 -17 -10
-57z"/>
<path d="M2360 3066 c0 -9 7 -16 16 -16 9 0 14 5 12 12 -6 18 -28 21 -28 4z"/>
<path d="M5865 3071 c-7 -12 12 -24 25 -16 11 7 4 25 -10 25 -5 0 -11 -4 -15
-9z"/>
<path d="M5907 2894 c-8 -8 1 -24 14 -24 5 0 9 7 9 15 0 15 -12 20 -23 9z"/>
<path d="M1706 2845 c-27 -71 53 -245 113 -245 28 0 27 6 -10 42 -35 36 -79
128 -79 167 0 36 -15 59 -24 36z"/>
<path d="M6347 2804 c-13 -13 -7 -24 14 -24 11 0 19 5 17 12 -5 14 -22 21 -31
12z"/>
<path d="M6740 2785 c0 -8 5 -15 10 -15 6 0 10 7 10 15 0 8 -4 15 -10 15 -5 0
-10 -7 -10 -15z"/>
<path d="M6643 2774 c-9 -4 -9 -11 -1 -30 6 -13 14 -24 17 -24 12 1 51 38 51
49 0 11 -44 14 -67 5z"/>
<path d="M3100 2735 c-7 -9 -11 -18 -8 -20 9 -10 38 7 38 21 0 18 -14 18 -30
-1z"/>
<path d="M6497 2737 c-3 -9 -16 -17 -29 -19 -42 -6 -19 -22 36 -25 48 -3 55
-1 61 18 8 25 6 27 -32 35 -22 4 -32 2 -36 -9z"/>
<path d="M1854 2689 c4 -24 8 -59 8 -77 1 -24 7 -34 23 -38 11 -3 29 -19 40
-35 11 -17 40 -46 65 -65 58 -45 149 -133 161 -156 13 -24 29 -23 29 3 0 30
-42 80 -135 159 -46 39 -95 86 -110 106 -24 31 -26 39 -16 61 13 28 5 46 -9
23 -10 -17 -13 -15 -25 24 -6 16 -16 31 -24 34 -10 3 -12 -5 -7 -39z"/>
<path d="M6780 2689 c-22 -36 -25 -38 -32 -19 -8 21 -44 26 -81 11 -17 -6 -18
-8 -3 -20 13 -11 14 -17 5 -28 -7 -7 -9 -16 -6 -19 3 -3 67 -6 143 -7 102 -2
138 1 141 11 3 8 -6 12 -26 12 -21 0 -31 5 -31 15 0 18 -58 85 -74 85 -6 0
-22 -19 -36 -41z"/>
<path d="M6571 2659 c-18 -7 -21 -13 -13 -21 14 -14 62 -1 62 17 0 17 -14 18
-49 4z"/>
<path d="M1828 2490 c19 -4 37 -12 41 -16 4 -5 34 -40 67 -79 83 -97 124 -151
124 -163 0 -6 6 -15 13 -19 14 -9 32 -37 47 -70 5 -13 14 -23 20 -23 15 0 12
26 -5 40 -8 7 -15 20 -15 30 0 10 -7 20 -15 24 -8 3 -15 12 -15 20 0 22 -85
141 -138 194 -58 58 -83 72 -124 71 l-33 -1 33 -8z"/>
<path d="M2296 2470 c9 -16 19 -30 24 -30 5 0 10 -12 12 -27 2 -14 9 -28 16
-31 17 -5 15 33 -3 48 -8 7 -15 18 -15 24 0 10 -34 46 -44 46 -3 0 2 -13 10
-30z"/>
<path d="M8100 2441 c0 -6 5 -11 10 -11 6 0 10 -7 10 -15 0 -9 7 -18 15 -21 8
-4 15 -12 15 -20 0 -8 4 -14 8 -14 20 0 20 14 1 38 -25 32 -59 57 -59 43z"/>
<path d="M3522 2414 c-12 -8 -22 -21 -22 -29 0 -23 20 -28 39 -11 10 9 23 16
29 16 18 0 26 22 11 31 -20 12 -32 11 -57 -7z"/>
<path d="M7470 2395 c0 -8 7 -15 15 -15 8 0 15 7 15 15 0 8 -7 15 -15 15 -8 0
-15 -7 -15 -15z"/>
<path d="M3441 2350 c-19 -11 5 -23 25 -12 14 8 14 10 2 15 -8 3 -21 2 -27 -3z"/>
<path d="M3703 2336 c-26 -12 -31 -36 -8 -36 8 0 15 6 15 14 0 8 6 16 13 19 6
2 10 6 7 9 -3 2 -15 -1 -27 -6z"/>
<path d="M3580 2315 c0 -10 7 -15 18 -13 21 4 19 22 -2 26 -10 2 -16 -3 -16
-13z"/>
<path d="M8195 2290 c-13 -22 17 -76 60 -107 24 -18 49 -33 55 -33 6 0 15 -11
20 -24 11 -29 45 -51 55 -36 4 6 -5 22 -19 36 -14 15 -28 36 -32 48 -7 26
-103 126 -121 126 -6 0 -15 -5 -18 -10z"/>
<path d="M1580 2113 c0 -19 83 -103 120 -122 48 -25 60 -26 60 -6 0 8 -7 15
-15 15 -8 0 -15 3 -15 8 0 7 -135 112 -145 112 -3 0 -5 -3 -5 -7z"/>
<path d="M1800 1934 c0 -4 10 -21 23 -38 13 -17 27 -40 31 -50 4 -13 10 -16
17 -9 11 11 2 43 -12 43 -5 0 -9 6 -9 13 -1 12 -50 54 -50 41z"/>
<path d="M6823 1820 c-15 -6 -23 -18 -23 -34 0 -14 -7 -29 -15 -33 -12 -7 -13
-16 -4 -46 10 -39 35 -47 32 -11 -1 19 56 64 82 64 8 0 17 10 21 22 12 39 -39
59 -93 38z"/>
<path d="M6739 1788 c-37 -68 -38 -72 -27 -85 13 -16 28 -8 28 16 0 10 7 24
15 31 17 14 20 46 6 55 -6 3 -16 -5 -22 -17z"/>
<path d="M1575 1780 c-3 -5 -1 -35 4 -67 6 -31 11 -57 11 -58 0 0 18 -1 40 -1
37 -1 40 1 40 26 0 15 -14 46 -30 68 -29 41 -53 52 -65 32z"/>
<path d="M4152 1767 c-29 -31 -28 -37 7 -37 59 0 82 28 42 50 -26 13 -24 14
-49 -13z"/>
<path d="M6922 1719 c2 -6 8 -10 13 -10 5 0 11 4 13 10 2 6 -4 11 -13 11 -9 0
-15 -5 -13 -11z"/>
<path d="M4407 1649 c-27 -21 -28 -39 -1 -39 17 0 74 40 74 52 0 15 -45 7 -73
-13z"/>
<path d="M4302 1595 c-12 -15 -20 -30 -18 -32 7 -8 47 38 44 49 -2 6 -14 -1
-26 -17z"/>
<path d="M6807 1574 c-4 -4 -7 -18 -7 -31 0 -28 23 -27 28 1 4 20 -11 40 -21
30z"/>
<path d="M5642 1556 c-35 -13 -109 -82 -99 -93 4 -3 22 2 41 11 19 9 48 16 65
16 35 0 74 32 69 58 -4 21 -32 24 -76 8z"/>
<path d="M4280 1505 c0 -8 5 -15 10 -15 6 0 10 7 10 15 0 8 -4 15 -10 15 -5 0
-10 -7 -10 -15z"/>
<path d="M4359 1477 c-8 -7 -23 -24 -32 -38 -16 -25 -16 -27 3 -44 17 -16 25
-17 40 -7 26 16 117 16 123 0 5 -16 57 29 57 49 0 17 -10 16 -30 -2 -16 -15
-19 -13 -38 20 -19 31 -26 35 -64 35 -24 0 -50 -6 -59 -13z"/>
<path d="M5925 1419 c-22 -10 -52 -19 -67 -19 -16 0 -33 -9 -42 -22 -25 -36 0
-52 88 -56 l73 -4 17 51 c24 76 9 87 -69 50z"/>
<path d="M3705 1420 c-8 -12 20 -24 35 -15 6 3 8 11 5 16 -8 12 -32 12 -40 -1z"/>
<path d="M4220 1365 c-7 -8 -21 -15 -32 -15 -32 0 -58 -19 -58 -44 0 -34 33
-39 65 -10 14 13 40 31 56 40 25 12 28 18 18 30 -15 18 -33 18 -49 -1z"/>
<path d="M6230 1356 c-25 -13 -47 -32 -48 -42 -2 -11 -8 -23 -13 -28 -5 -6 -9
-16 -9 -24 0 -22 76 -9 133 23 51 29 53 32 35 70 -14 32 -40 32 -98 1z"/>
<path d="M3380 1355 c0 -9 5 -15 11 -13 6 2 11 8 11 13 0 5 -5 11 -11 13 -6 2
-11 -4 -11 -13z"/>
<path d="M6503 1322 c-36 -31 -53 -83 -34 -106 16 -20 82 4 93 34 4 12 17 24
28 27 22 6 27 35 7 51 -29 24 -61 22 -94 -6z"/>
<path d="M3535 1320 c-9 -14 1 -27 25 -33 25 -6 36 9 20 28 -14 17 -36 19 -45
5z"/>
<path d="M5367 1253 c-4 -3 -7 -15 -7 -25 0 -26 24 -17 28 10 3 21 -8 29 -21
15z"/>
<path d="M3735 1211 c-3 -5 -1 -12 4 -15 13 -8 42 4 35 15 -7 12 -31 12 -39 0z"/>
<path d="M4161 1202 c-5 -10 -21 -24 -35 -32 -27 -14 -35 -40 -13 -40 8 0 26
14 40 30 15 17 32 30 37 30 6 0 10 7 10 15 0 21 -27 19 -39 -3z"/>
<path d="M5410 1190 c-11 -7 -12 -12 -3 -21 14 -14 46 -4 41 13 -6 16 -20 19
-38 8z"/>
<path d="M3618 1172 c-18 -10 -28 -25 -28 -40 0 -21 3 -24 28 -18 15 4 58 11
96 16 37 5 70 11 73 14 2 2 -14 7 -36 11 -22 4 -45 13 -52 21 -15 19 -48 17
-81 -4z"/>
<path d="M3950 1182 c0 -4 9 -15 21 -25 29 -26 122 -6 105 22 -11 17 -57 13
-72 -6 -13 -17 -15 -17 -25 0 -10 17 -29 23 -29 9z"/>
<path d="M4308 1106 c-28 -21 -22 -26 34 -26 50 0 51 0 33 20 -21 23 -43 25
-67 6z"/>
<path d="M5584 1085 c-8 -19 3 -35 26 -35 19 0 34 25 24 41 -8 14 -44 10 -50
-6z"/>
<path d="M5832 995 c-66 -33 -59 -49 20 -43 60 4 81 18 75 48 -4 24 -38 22
-95 -5z"/>
<path d="M6895 1010 c-4 -6 -3 -16 3 -22 6 -6 12 -6 17 2 4 6 3 16 -3 22 -6 6
-12 6 -17 -2z"/>
<path d="M7730 975 c-17 -21 1 -39 29 -30 27 8 28 45 2 45 -10 0 -24 -7 -31
-15z"/>
<path d="M6460 961 c-15 -30 -12 -33 15 -15 14 9 22 20 19 25 -9 15 -23 10
-34 -10z"/>
<path d="M6200 925 c-7 -8 -21 -15 -31 -15 -14 0 -19 -7 -19 -25 0 -15 -6 -25
-14 -25 -15 0 -86 -80 -86 -96 0 -14 41 -46 48 -38 4 4 1 9 -5 11 -15 5 -18
63 -3 63 5 0 14 -8 19 -17 9 -16 13 -15 36 11 14 16 25 32 25 35 0 4 12 20 28
37 15 17 33 41 40 53 11 18 10 21 -7 21 -10 0 -24 -7 -31 -15z"/>
<path d="M6456 877 c-15 -19 -26 -47 -26 -62 0 -27 -1 -27 -13 -10 -22 29 -31
-1 -12 -41 16 -33 35 -38 35 -8 0 8 4 14 9 14 5 0 13 10 17 22 4 13 16 35 26
49 13 17 18 34 13 48 -9 29 -20 26 -49 -12z"/>
<path d="M5510 880 c-12 -8 -9 -14 18 -36 19 -15 38 -37 42 -50 5 -13 17 -24
27 -24 10 -1 29 -10 42 -21 21 -17 23 -24 13 -39 -9 -14 -8 -21 4 -31 12 -10
18 -8 30 9 18 26 46 28 64 7 8 -9 30 -15 57 -15 41 0 45 -2 60 -37 l15 -38 39
44 c39 47 41 61 8 61 -23 0 -99 37 -99 48 0 4 -22 9 -49 10 -59 2 -140 41
-188 88 -35 35 -57 41 -83 24z"/>
<path d="M4522 848 c5 -15 37 -18 41 -3 1 6 -9 12 -22 13 -16 3 -22 -1 -19
-10z"/>
<path d="M7700 808 c-6 -13 -15 -30 -22 -39 -6 -9 -8 -24 -4 -35 7 -18 9 -18
23 3 12 18 19 20 33 13 26 -14 37 7 14 25 -18 12 -17 14 8 26 33 15 27 29 -13
29 -21 0 -32 -6 -39 -22z"/>
<path d="M3386 756 c-30 -27 -33 -41 -8 -51 11 -4 22 1 31 14 7 12 22 21 32
21 16 0 36 17 28 24 -2 2 -16 6 -31 10 -20 5 -33 0 -52 -18z"/>
<path d="M6036 733 c-3 -4 -6 -18 -6 -31 0 -14 -7 -32 -15 -41 -8 -9 -31 -47
-50 -84 -29 -58 -32 -72 -23 -93 15 -31 36 -31 44 1 3 14 20 33 36 41 28 15
29 16 13 34 -18 20 -16 27 26 100 20 35 21 42 1 60 -11 10 -23 16 -26 13z"/>
<path d="M6593 703 c-4 -10 -13 -24 -20 -31 -7 -7 -13 -21 -13 -30 0 -9 -7
-26 -15 -36 -18 -24 -20 -76 -2 -76 12 0 34 51 44 105 3 17 12 40 20 52 10 14
11 23 3 28 -5 3 -13 -2 -17 -12z"/>
<path d="M3500 700 c-12 -8 -11 -10 8 -10 12 0 22 5 22 10 0 13 -11 13 -30 0z"/>
<path d="M6386 683 c-9 -9 -7 -63 2 -63 10 0 42 33 42 43 0 10 -37 27 -44 20z"/>
<path d="M7662 678 c-25 -25 24 -50 57 -29 12 8 12 12 2 25 -16 19 -42 21 -59
4z"/>
<path d="M7620 614 c0 -6 -16 -32 -35 -57 -38 -50 -43 -67 -19 -67 21 0 74 60
74 85 0 21 -20 59 -20 39z"/>
<path d="M7455 450 c-6 -9 11 -50 20 -50 3 0 5 14 5 30 0 29 -13 40 -25 20z"/>
<path d="M6027 414 c-14 -14 -6 -24 19 -24 16 0 24 5 22 13 -5 14 -31 21 -41
11z"/>
<path d="M7244 402 c-9 -8 -20 -26 -25 -38 -6 -17 -15 -23 -31 -21 -18 2 -24
-4 -26 -25 -3 -26 -7 -28 -47 -28 -27 0 -47 -5 -52 -14 -4 -8 -17 -15 -28 -18
-16 -3 -20 -11 -20 -42 0 -23 5 -41 13 -43 8 -3 12 6 12 27 0 26 6 33 36 46
47 20 66 15 83 -20 13 -27 15 -28 27 -11 15 20 44 14 44 -10 0 -9 5 -13 10
-10 6 3 10 26 10 49 0 39 4 46 41 71 40 28 85 82 77 91 -3 2 -28 6 -57 8 -37
3 -56 0 -67 -12z"/>
<path d="M6903 192 c-9 -6 -5 -17 17 -40 16 -18 34 -40 39 -50 10 -15 10 -15
11 3 0 11 -3 37 -6 58 -5 29 -11 37 -28 37 -11 0 -27 -4 -33 -8z"/>
<path d="M1047 74 c-8 -8 1 -24 14 -24 5 0 9 7 9 15 0 15 -12 20 -23 9z"/>
<path d="M2070 10 c-11 -7 -5 -10 23 -10 23 0 36 4 32 10 -8 13 -35 13 -55 0z"/>
</g>
</svg>
